<svg width="9148" height="1952" viewBox="0 0 9148 1952" fill="none" xmlns="http://www.w3.org/2000/svg">
<path d="M7991.4 582.923L7987.9 592.454L7988.25 593.926C7989.33 590.225 7990.38 586.556 7991.4 582.923ZM7989.85 541.372C7986.65 549.357 7983.32 557.478 7979.86 565.733C7980.62 567.765 7981.37 569.825 7982.07 571.914C7985.08 563.471 7987.91 555.205 7990.61 547.098C7990.38 545.167 7990.12 543.266 7989.85 541.372ZM8002.78 507.979L7998.3 519.815L7998.73 521.601C8000.13 517.004 8001.48 512.461 8002.78 507.979ZM4711.22 1555.22L4710.69 1555.43L4711.29 1555.2L4711.22 1555.22ZM7983.07 509.894C7978.5 520.246 7973.72 530.82 7968.75 541.596C7970.24 544.273 7971.66 547.008 7973.02 549.81C7977.39 539.157 7981.52 528.747 7985.44 518.572C7984.7 515.619 7983.91 512.732 7983.07 509.894ZM8000.84 468.264C7997.4 476.611 7993.85 485.09 7990.13 493.739C7990.93 495.771 7991.71 497.831 7992.45 499.929C7995.68 491.147 7998.76 482.536 8001.64 474.115C8001.4 472.14 8001.13 470.195 8000.84 468.264ZM8015.02 432.485C8013.12 437.462 8011.17 442.502 8009.16 447.588L8009.71 449.765C8011.56 443.911 8013.33 438.153 8015.02 432.485ZM4793.03 1523.48L4784.72 1525.36C4775.12 1529.32 4765.52 1533.24 4755.93 1537.15L4762.21 1535.56C4772.48 1531.56 4782.75 1527.53 4793.03 1523.48ZM4842.86 1512L4841.73 1512.26L4833.32 1515.63L4842.86 1512ZM7978.05 665.721L7978.31 666.892L7980.56 658.662L7978.05 665.721ZM7970.06 638.345C7970.78 640.363 7971.5 642.406 7972.17 644.477C7974.95 636.353 7977.59 628.374 7980.09 620.545C7979.86 618.661 7979.61 616.803 7979.36 614.956C7976.37 622.632 7973.27 630.425 7970.06 638.345ZM7959.15 613.446C7960.58 616.172 7961.98 618.939 7963.3 621.785C7967.38 611.454 7971.27 601.345 7974.95 591.443C7974.24 588.471 7973.48 585.553 7972.67 582.685C7968.34 592.754 7963.85 602.992 7959.15 613.446ZM7945.42 591.32C7947.54 594.221 7949.55 597.218 7951.51 600.283C7956.85 588.223 7961.92 576.444 7966.76 564.919C7965.44 561.5 7964.03 558.167 7962.55 554.922L7956.74 567.203C7952.88 575.316 7949.12 583.344 7945.42 591.32ZM4873.77 1491.21C4869.17 1492.16 4864.59 1493.08 4860 1494.01C4847.34 1499.34 4834.68 1504.65 4822.03 1509.91L4834.81 1506.9C4847.79 1501.71 4860.78 1496.47 4873.77 1491.21ZM4925.15 1480.25C4922.03 1480.93 4918.9 1481.64 4915.79 1482.32C4905.73 1486.44 4895.68 1490.54 4885.63 1494.61L4893.02 1492.76C4903.73 1488.62 4914.44 1484.44 4925.15 1480.25ZM4975.52 1468.86L4973.26 1469.38L4956.9 1475.86L4975.52 1468.86ZM7968.85 739.622L7969.06 740.553L7970.74 734.112L7968.85 739.622ZM7960.84 711.541C7961.55 713.554 7962.22 715.602 7962.88 717.665C7965.45 709.809 7967.9 702.087 7970.23 694.496L7969.51 688.994C7966.73 696.4 7963.84 703.911 7960.84 711.541ZM7950.37 686.604C7951.65 689.172 7952.87 691.791 7954.05 694.449C7957.9 684.369 7961.56 674.5 7965.04 664.828C7964.34 661.823 7963.59 658.867 7962.8 655.961C7960.83 660.661 7958.83 665.404 7956.79 670.187C7954.61 675.694 7952.48 681.16 7950.37 686.604ZM7937.41 664.262C7939.18 666.881 7940.91 669.545 7942.56 672.285L7943.85 669.01L7943.87 668.96C7948.42 658.302 7952.78 647.85 7956.94 637.615C7955.68 634.192 7954.33 630.846 7952.91 627.577C7947.56 639.97 7942.4 652.194 7937.41 664.262ZM7921.69 644.068C7924.16 646.805 7926.53 649.638 7928.83 652.538C7933.67 640.97 7938.68 629.26 7943.86 617.399L7943.86 617.375L7945.85 612.974C7944 609.559 7942.05 606.243 7940.02 603.022C7933.66 616.915 7927.55 630.592 7921.69 644.068ZM4954.83 1457.97C4948.84 1459.09 4942.84 1460.2 4936.85 1461.29C4921.85 1467.75 4906.86 1474.16 4891.87 1480.53C4897.57 1479.32 4903.25 1478.13 4908.96 1476.89C4924.25 1470.63 4939.54 1464.32 4954.83 1457.97ZM5006.6 1447.9C5001.67 1448.9 4996.74 1449.87 4991.81 1450.84C4978.75 1456.31 4965.69 1461.75 4952.64 1467.15L4966.45 1463.97C4979.83 1458.65 4993.21 1453.3 5006.6 1447.9ZM5058.41 1437.11L5047.96 1439.36C5037.43 1443.64 5026.89 1447.91 5016.37 1452.15L5025.07 1450C5036.18 1445.73 5047.29 1441.43 5058.41 1437.11ZM5109.2 1425.92L5105.79 1426.68L5084.44 1435.06L5085.1 1434.89C5093.13 1431.91 5101.17 1428.93 5109.2 1425.92ZM7952.83 844.242L7952.5 841.959C7950.73 849.162 7949.02 856.303 7947.36 863.394C7949.26 856.922 7951.08 850.539 7952.83 844.242ZM7960.42 813.954L7960.6 814.697L7961.85 809.605L7960.42 813.954ZM7952.74 786.731C7953.28 788.318 7953.81 789.905 7954.32 791.517C7956.69 783.947 7958.94 776.501 7961.09 769.178C7960.85 767.312 7960.62 765.443 7960.36 763.607L7956.83 773.228L7952.74 786.731ZM7943 762.212C7943.84 764.021 7944.67 765.834 7945.47 767.684C7949.08 757.874 7952.5 748.251 7955.76 738.816C7955.12 736.024 7954.43 733.279 7953.71 730.566C7950 741.241 7946.43 751.788 7943 762.212ZM7930.75 739.346C7932.18 741.665 7933.58 744.008 7934.93 746.409C7937.8 737.889 7940.76 729.301 7943.82 720.62L7943.84 720.543L7947.64 710.985C7946.59 708.046 7945.51 705.143 7944.36 702.31C7939.62 714.832 7935.1 727.174 7930.75 739.346ZM7915.93 718.411C7918.03 721.011 7920.08 723.669 7922.06 726.39C7926.84 713.238 7931.83 699.896 7937.07 686.342C7935.49 683.223 7933.85 680.157 7932.13 677.183C7926.46 691.149 7921.07 704.884 7915.93 718.411ZM7898.51 699.492C7901.29 702.147 7904 704.887 7906.63 707.706C7912.12 693.468 7917.9 678.997 7923.96 664.281C7921.73 661.072 7919.4 657.966 7917 654.945C7910.51 670.058 7904.36 684.902 7898.51 699.492ZM5036.46 1423.66C5029.43 1424.83 5022.41 1426.01 5015.4 1427.14C4998.42 1434.6 4981.44 1442.01 4964.46 1449.37C4971.3 1448.06 4978.14 1446.74 4985 1445.39C5002.15 1438.2 5019.3 1430.96 5036.46 1423.66ZM5088.31 1414.61C5082.01 1415.76 5075.7 1416.88 5069.41 1418C5053.98 1424.6 5038.55 1431.16 5023.12 1437.68C5029.12 1436.44 5035.12 1435.21 5041.13 1433.94C5056.85 1427.54 5072.58 1421.1 5088.31 1414.61ZM5140.43 1404.79C5135.17 1405.82 5129.92 1406.81 5124.67 1407.81C5111.16 1413.44 5097.64 1419.03 5084.13 1424.58L5098.86 1421.28C5112.71 1415.82 5126.57 1410.33 5140.43 1404.79ZM5192.76 1394.2L5181.35 1396.56C5170.3 1401.02 5159.26 1405.45 5148.21 1409.86L5157.94 1407.53C5169.54 1403.12 5181.16 1398.67 5192.76 1394.2ZM5244.45 1383.11L5239.6 1384.18C5231.92 1387.18 5224.23 1390.17 5216.54 1393.14L5218.61 1392.62C5227.22 1389.47 5235.84 1386.29 5244.45 1383.11ZM7937.37 841.158L7938.65 844.152C7940.3 837.438 7942.01 830.675 7943.76 823.856L7943.82 823.733L7947.23 813.534L7946.2 809.128C7943.11 819.939 7940.17 830.612 7937.37 841.158ZM7925.74 817.437C7926.82 819.363 7927.88 821.302 7928.92 823.275C7932.27 811.152 7935.8 798.857 7939.51 786.39C7938.78 784.243 7938.01 782.129 7937.22 780.031C7933.19 792.689 7929.37 805.153 7925.74 817.437ZM7911.75 795.407C7913.48 797.813 7915.17 800.28 7916.82 802.779C7920.87 789.438 7925.16 775.89 7929.68 762.122C7928.37 759.347 7927.01 756.62 7925.61 753.946C7920.72 768 7916.11 781.82 7911.75 795.407ZM7895.33 775.316C7897.74 777.919 7900.08 780.579 7902.36 783.314C7907.06 768.97 7912.03 754.386 7917.32 739.537C7915.39 736.483 7913.4 733.506 7911.34 730.596C7905.68 745.784 7900.35 760.685 7895.33 775.316ZM7876.51 757.208C7879.57 759.819 7882.56 762.496 7885.47 765.263C7890.75 750.097 7896.37 734.65 7902.34 718.9C7899.78 715.808 7897.13 712.789 7894.38 709.883C7888.03 725.983 7882.08 741.752 7876.51 757.208ZM2621.16 1160.32L2629.76 1160.96L2628.05 1160.22L2619.1 1159.17L2621.16 1160.32ZM5118.97 1388.19C5111.22 1389.32 5103.49 1390.41 5095.78 1391.48C5077.09 1399.85 5058.4 1408.18 5039.71 1416.44C5047.38 1415.13 5055.06 1413.79 5062.75 1412.44C5081.49 1404.42 5100.23 1396.33 5118.97 1388.19ZM5170.62 1380.23C5163.31 1381.41 5155.99 1382.58 5148.69 1383.71C5131.32 1391.3 5113.94 1398.84 5096.57 1406.33C5103.7 1405.01 5110.85 1403.66 5118 1402.3C5135.53 1395 5153.07 1387.64 5170.62 1380.23ZM5222.89 1371.44C5216.26 1372.6 5209.61 1373.76 5202.99 1374.88C5187.14 1381.63 5171.28 1388.32 5155.41 1394.97C5161.77 1393.7 5168.14 1392.41 5174.52 1391.1C5190.64 1384.6 5206.77 1378.04 5222.89 1371.44ZM5275.66 1361.84C5270 1362.91 5264.34 1363.97 5258.69 1365.02C5244.71 1370.78 5230.72 1376.52 5216.74 1382.21C5221.96 1381.09 5227.19 1379.97 5232.43 1378.82C5246.83 1373.2 5261.25 1367.54 5275.66 1361.84ZM5328.58 1351.54L5315.88 1354.08C5304.31 1358.7 5292.74 1363.29 5281.17 1367.86C5284.77 1367.04 5288.36 1366.23 5291.96 1365.39C5304.17 1360.81 5316.37 1356.18 5328.58 1351.54ZM5380.94 1340.71L5374.21 1342.13C5365.85 1345.36 5357.48 1348.57 5349.11 1351.77L5353.25 1350.76C5362.48 1347.43 5371.71 1344.08 5380.94 1340.71ZM7934.11 924.94L7934.26 925.336L7936.51 912.858L7934.11 924.94ZM7922.95 899.623C7923.66 901.033 7924.37 902.431 7925.06 903.862C7927.65 891.461 7930.43 878.879 7933.4 866.098L7932 861.829C7928.77 874.631 7925.76 887.224 7922.95 899.623ZM7909.61 876.096C7910.98 878.24 7912.33 880.403 7913.64 882.602C7916.86 869.024 7920.35 855.207 7924.07 841.158C7923.04 838.785 7921.99 836.444 7920.91 834.136C7916.86 848.375 7913.1 862.358 7909.61 876.096ZM7894.07 854.42C7896.09 856.928 7898.05 859.501 7899.98 862.107C7903.81 847.563 7907.93 832.753 7912.37 817.658C7910.75 814.82 7909.07 812.045 7907.36 809.313C7902.59 824.651 7898.16 839.683 7894.07 854.42ZM7876.3 834.747C7878.95 837.38 7881.54 840.068 7884.08 842.83C7888.45 827.516 7893.17 811.902 7898.26 795.961C7896.03 792.923 7893.74 789.949 7891.37 787.061C7885.94 803.306 7880.93 819.196 7876.3 834.747ZM7856.32 817.019C7859.59 819.622 7862.81 822.272 7865.94 825.028C7870.79 809.084 7876.05 792.787 7881.72 776.13C7878.86 773.114 7875.91 770.205 7872.88 767.37C7866.89 784.308 7861.38 800.854 7856.32 817.019ZM2672.92 1171.31L2681.54 1171.71L2680.77 1171.44L2671.49 1170.67L2672.92 1171.31ZM2638.03 1169.81L2651.42 1170.36L2647.76 1168.74L2634.33 1167.71L2638.03 1169.81ZM5202.79 1351.38C5194.47 1352.42 5186.16 1353.41 5177.86 1354.38C5157.67 1363.59 5137.47 1372.75 5117.27 1381.84C5125.55 1380.62 5133.84 1379.36 5142.14 1378.09C5162.36 1369.25 5182.58 1360.34 5202.79 1351.38ZM5253.97 1344.65C5245.92 1345.77 5237.9 1346.85 5229.88 1347.91C5210.77 1356.42 5191.65 1364.88 5172.52 1373.28C5180.47 1371.98 5188.45 1370.65 5196.42 1369.3C5215.61 1361.14 5234.78 1352.92 5253.97 1344.65ZM5305.96 1337.04C5298.37 1338.2 5290.78 1339.34 5283.2 1340.46C5265.32 1348.2 5247.45 1355.91 5229.56 1363.56C5237.02 1362.23 5244.49 1360.87 5251.96 1359.5C5269.96 1352.06 5287.96 1344.58 5305.96 1337.04ZM5358.7 1328.59C5351.76 1329.75 5344.82 1330.88 5337.89 1332C5321.49 1338.91 5305.07 1345.78 5288.66 1352.6C5295.39 1351.3 5302.14 1349.96 5308.89 1348.63C5325.5 1342 5342.1 1335.32 5358.7 1328.59ZM5412.08 1319.33C5406.06 1320.42 5400.03 1321.47 5394.02 1322.53C5379.46 1328.47 5364.89 1334.38 5350.32 1340.26C5356.01 1339.08 5361.69 1337.88 5367.38 1336.68C5382.28 1330.94 5397.18 1325.15 5412.08 1319.33ZM5465.7 1309.36C5460.91 1310.28 5456.12 1311.18 5451.32 1312.08C5439.09 1316.91 5426.85 1321.71 5414.61 1326.48L5427.44 1323.63C5440.2 1318.9 5452.95 1314.14 5465.7 1309.36ZM5518.51 1298.93L5510.04 1300.63C5500.93 1304.08 5491.82 1307.53 5482.71 1310.95L5488.65 1309.57C5498.6 1306.04 5508.56 1302.49 5518.51 1298.93ZM7923.29 988.072L7924.25 990.35C7925.91 977.697 7927.77 964.837 7929.85 951.764L7929.42 950.234C7927.15 963.065 7925.12 975.674 7923.29 988.072ZM7910.3 962.005C7911.3 963.794 7912.27 965.613 7913.25 967.435C7915.5 953.542 7918.03 939.398 7920.82 924.981C7920.09 923.131 7919.35 921.307 7918.6 919.487C7915.54 933.937 7912.77 948.106 7910.3 962.005ZM7895.35 938.193C7897 940.543 7898.61 942.927 7900.19 945.345C7903.02 930.507 7906.16 915.371 7909.64 899.924C7908.34 897.34 7906.97 894.802 7905.6 892.294C7901.81 907.927 7898.41 923.221 7895.35 938.193ZM7878.42 916.449C7880.67 919.061 7882.89 921.713 7885.06 924.42C7888.39 908.85 7892.11 892.938 7896.22 876.674C7894.32 873.754 7892.36 870.883 7890.35 868.07C7885.94 884.58 7881.97 900.699 7878.42 916.449ZM7859.51 896.744C7862.36 899.418 7865.16 902.15 7867.89 904.955C7871.68 888.792 7875.9 872.244 7880.57 855.308C7878.07 852.262 7875.52 849.277 7872.89 846.381C7867.93 863.596 7863.49 880.381 7859.51 896.744ZM7838.64 879.016C7842.07 881.643 7845.42 884.331 7848.71 887.104C7852.88 870.454 7857.53 853.382 7862.69 835.881C7859.6 832.892 7856.43 829.997 7853.18 827.183C7847.77 844.931 7842.94 862.205 7838.64 879.016ZM2728.86 1180.65L2733.93 1180.76L2728.29 1180.44L2728.86 1180.65ZM2691.88 1179.96L2705.67 1180.2L2702.6 1179.1L2688.52 1178.4L2691.88 1179.96ZM2654.69 1179.43L2672.16 1179.66L2667.21 1177.41L2649.93 1176.66L2654.69 1179.43ZM2491.06 1118.37C2495.61 1120.55 2500.17 1122.71 2504.73 1124.84L2501.98 1122.53C2497.45 1120.18 2492.93 1117.81 2488.43 1115.41L2491.06 1118.37ZM2455.25 1100.56C2458.57 1102.27 2461.89 1103.96 2465.22 1105.64L2459.51 1099.49L2451.55 1094.94L2455.25 1100.56ZM5287.94 1313.27C5279.16 1314.16 5270.39 1315.01 5261.64 1315.83C5240.15 1325.8 5218.64 1335.72 5197.13 1345.57C5205.88 1344.49 5214.63 1343.38 5223.4 1342.23C5244.92 1332.64 5266.43 1322.98 5287.94 1313.27ZM5338.66 1307.75C5330.04 1308.75 5321.42 1309.72 5312.83 1310.66C5292.24 1319.99 5271.63 1329.26 5251.01 1338.49C5259.57 1337.29 5268.14 1336.07 5276.73 1334.81C5297.38 1325.85 5318.02 1316.83 5338.66 1307.75ZM5390.25 1301.38C5381.9 1302.47 5373.56 1303.53 5365.25 1304.56C5345.69 1313.19 5326.13 1321.78 5306.56 1330.31C5314.8 1329.04 5323.03 1327.74 5331.28 1326.41C5350.95 1318.12 5370.6 1309.78 5390.25 1301.38ZM5442.72 1294.17C5434.8 1295.31 5426.88 1296.44 5418.97 1297.53C5400.63 1305.4 5382.28 1313.23 5363.93 1321C5371.69 1319.69 5379.45 1318.36 5387.22 1317C5405.72 1309.44 5424.22 1301.83 5442.72 1294.17ZM5495.99 1286.15C5488.65 1287.3 5481.33 1288.44 5474.01 1289.54C5457.12 1296.58 5440.24 1303.56 5423.34 1310.51C5430.43 1309.21 5437.52 1307.89 5444.62 1306.56C5461.75 1299.8 5478.88 1293 5495.99 1286.15ZM5549.98 1277.33C5543.42 1278.44 5536.86 1279.53 5530.31 1280.61C5515.15 1286.72 5499.98 1292.79 5484.81 1298.82C5491.05 1297.59 5497.29 1296.34 5503.53 1295.09C5519.02 1289.21 5534.5 1283.29 5549.98 1277.33ZM5603.96 1267.88L5587.92 1270.75C5575.02 1275.75 5562.11 1280.74 5549.2 1285.69C5554 1284.69 5558.79 1283.68 5563.59 1282.65C5577.05 1277.76 5590.51 1272.84 5603.96 1267.88ZM5657.4 1257.96L5646.9 1259.96C5636.99 1263.65 5627.08 1267.32 5617.16 1270.98L5625.18 1269.18C5635.91 1265.46 5646.66 1261.72 5657.4 1257.96ZM5709.18 1247.83L5707.37 1248.19L5697.81 1251.58L5709.18 1247.83ZM7915.21 1056.43L7916.99 1060.26C7918.05 1046.09 7919.4 1031.63 7921.04 1016.88L7919.82 1013.38C7917.97 1028.04 7916.43 1042.39 7915.21 1056.43ZM7900.39 1028.8C7901.65 1030.9 7902.88 1033.04 7904.09 1035.18C7905.71 1019.96 7907.66 1004.41 7909.99 988.507C7908.99 986.262 7907.98 984.024 7906.94 981.828C7904.35 997.862 7902.17 1013.51 7900.39 1028.8ZM7883.92 1004.09C7885.78 1006.61 7887.61 1009.17 7889.4 1011.77C7891.52 995.803 7894.05 979.454 7897 962.701C7895.42 959.918 7893.81 957.17 7892.15 954.471C7888.94 971.445 7886.19 987.982 7883.92 1004.09ZM7865.75 981.79C7868.18 984.497 7870.56 987.269 7872.9 990.077C7875.45 973.519 7878.48 956.525 7882 939.084C7879.86 936.052 7877.67 933.066 7875.41 930.154C7871.65 947.852 7868.43 965.059 7865.75 981.79ZM7845.9 961.693C7848.87 964.419 7851.76 967.23 7854.61 970.082C7857.52 953.059 7860.98 935.56 7864.99 917.575C7862.29 914.513 7859.52 911.527 7856.7 908.607C7852.48 926.835 7848.9 944.525 7845.9 961.693ZM7824.41 943.651C7827.88 946.298 7831.26 949.043 7834.61 951.829C7837.8 934.459 7841.59 916.572 7846 898.15C7842.76 895.162 7839.43 892.274 7836.03 889.453C7831.47 908.096 7827.6 926.158 7824.41 943.651ZM2749.94 1188.45L2763.77 1188.39L2761.45 1187.72L2747.06 1187.38L2749.94 1188.45ZM2710.66 1188.74L2728.76 1188.59L2724.11 1186.88L2705.98 1186.53L2710.66 1188.74ZM2671.16 1189.18L2692.24 1188.93L2686.37 1186.19L2665.64 1185.89L2671.16 1189.18ZM2646.59 1185.66L2649.71 1186.52L2648.29 1185.68L2646.59 1185.66ZM2555.64 1156.51C2562.96 1159.18 2570.28 1161.78 2577.61 1164.3C2569.69 1161.26 2561.8 1158.14 2553.93 1154.93L2555.64 1156.51ZM2508.18 1138.17C2515.48 1141.14 2522.78 1144.05 2530.1 1146.89L2525.78 1143.04C2518.52 1139.87 2511.28 1136.63 2504.06 1133.32L2508.18 1138.17ZM2468.56 1121.35C2474.38 1123.92 2480.2 1126.44 2486.03 1128.93L2479.97 1122C2474.65 1119.44 2469.35 1116.84 2464.05 1114.2L2468.56 1121.35ZM5374.57 1273.78C5365.42 1274.5 5356.29 1275.17 5347.17 1275.8C5324.51 1286.49 5301.81 1297.13 5279.11 1307.7C5288.23 1306.79 5297.38 1305.84 5306.53 1304.86C5329.23 1294.56 5351.91 1284.2 5374.57 1273.78ZM5424.77 1269.51C5415.69 1270.35 5406.63 1271.15 5397.58 1271.91C5375.68 1282.01 5353.76 1292.05 5331.81 1302.03C5340.84 1300.99 5349.9 1299.92 5358.95 1298.8C5380.9 1289.1 5402.85 1279.33 5424.77 1269.51ZM5475.88 1264.41C5466.96 1265.36 5458.05 1266.28 5449.16 1267.17C5428.12 1276.62 5407.06 1286.03 5385.99 1295.37C5394.83 1294.22 5403.69 1293.03 5412.55 1291.82C5433.68 1282.74 5454.79 1273.6 5475.88 1264.41ZM5527.99 1258.49C5519.32 1259.53 5510.67 1260.54 5502.03 1261.53C5481.97 1270.3 5461.89 1279.02 5441.8 1287.69C5450.33 1286.46 5458.88 1285.19 5467.44 1283.9C5487.64 1275.48 5507.82 1267.01 5527.99 1258.49ZM5580.98 1251.79C5572.67 1252.89 5564.39 1253.97 5556.12 1255.02C5537.21 1263.04 5518.3 1271.01 5499.39 1278.94C5507.5 1277.65 5515.63 1276.34 5523.77 1275C5542.85 1267.31 5561.92 1259.58 5580.98 1251.79ZM5634.82 1244.32C5626.99 1245.45 5619.16 1246.56 5611.35 1247.65C5593.84 1254.84 5576.32 1261.99 5558.79 1269.1C5566.37 1267.79 5573.96 1266.47 5581.56 1265.13C5599.32 1258.24 5617.08 1251.3 5634.82 1244.32ZM5689.03 1236.17C5681.98 1237.27 5674.94 1238.35 5667.9 1239.42C5652.07 1245.69 5636.22 1251.92 5620.37 1258.12C5627.05 1256.89 5633.75 1255.64 5640.44 1254.38C5656.65 1248.35 5672.84 1242.27 5689.03 1236.17ZM5743.43 1227.42L5725.72 1230.33C5712.04 1235.53 5698.35 1240.7 5684.65 1245.85L5700.85 1242.64C5715.05 1237.59 5729.25 1232.52 5743.43 1227.42ZM5797.64 1218.16L5784.8 1220.4C5773.98 1224.33 5763.15 1228.24 5752.32 1232.14L5762.75 1229.96C5774.39 1226.05 5786.01 1222.11 5797.64 1218.16ZM5849.92 1208.77L5845.29 1209.62L5824.96 1216.59L5826.04 1216.36L5849.92 1208.77ZM7931.38 1223.06L7931.27 1222.63C7931.61 1225.8 7931.96 1228.95 7932.33 1232.08L7931.38 1223.06ZM7927.55 1168.33L7927.71 1168.74C7927.34 1158.98 7927.11 1149.07 7927.04 1138.99C7927.05 1148.93 7927.22 1158.72 7927.55 1168.33ZM7911.6 1131.8C7912.42 1133.44 7913.2 1135.11 7914 1136.77C7914.01 1121.05 7914.42 1104.92 7915.24 1088.37L7913.25 1083.15C7912.24 1099.82 7911.69 1116.03 7911.6 1131.8ZM7894.73 1101.46C7896.17 1103.77 7897.56 1106.14 7898.95 1108.5C7899.49 1091.85 7900.49 1074.74 7901.99 1057.15C7900.75 1054.57 7899.49 1052.01 7898.19 1049.49C7896.49 1067.34 7895.33 1084.66 7894.73 1101.46ZM7876.73 1075.11C7878.7 1077.74 7880.65 1080.4 7882.56 1083.1C7883.55 1065.87 7885.07 1048.12 7887.17 1029.84C7885.38 1026.89 7883.55 1023.98 7881.67 1021.12C7879.39 1039.7 7877.75 1057.69 7876.73 1075.11ZM7857.42 1051.72C7859.91 1054.48 7862.34 1057.29 7864.74 1060.13C7866.09 1042.45 7868.06 1024.2 7870.67 1005.37C7868.35 1002.26 7865.97 999.209 7863.55 996.215C7860.78 1015.36 7858.76 1033.86 7857.42 1051.72ZM7836.85 1030.83C7839.78 1033.56 7842.66 1036.34 7845.49 1039.18C7847.11 1021.17 7849.42 1002.55 7852.44 983.297C7849.63 980.202 7846.75 977.17 7843.81 974.212C7840.69 993.779 7838.38 1012.65 7836.85 1030.83ZM7815.04 1012.1C7818.38 1014.73 7821.66 1017.4 7824.89 1020.14C7826.67 1001.91 7829.21 983.025 7832.54 963.463C7829.24 960.472 7825.89 957.547 7822.46 954.709C7819.1 974.589 7816.64 993.713 7815.04 1012.1ZM2812.07 1195.24L2825.81 1194.9L2824.59 1194.62L2809.99 1194.61L2812.07 1195.24ZM2770.76 1196.37L2789.22 1195.85L2785.14 1194.64L2766.39 1194.69L2770.76 1196.37ZM2729.22 1197.64L2751.11 1196.96L2745.39 1194.79L2723.66 1194.95L2729.22 1197.64ZM2687.43 1199.03L2711.78 1198.19L2705.34 1195.11L2681.42 1195.37L2687.43 1199.03ZM2660.46 1195.64L2667.6 1197.2L2664.93 1195.58L2660.46 1195.64ZM2629.52 1188.35L2633.63 1189.38L2629.24 1188.13L2629.52 1188.35ZM2572.91 1172.68C2583.8 1175.97 2594.69 1179.1 2605.56 1182.07L2603.3 1180.39C2591.92 1176.84 2580.57 1173.11 2569.26 1169.21L2572.91 1172.68ZM2523.58 1156.74C2532.64 1159.85 2541.7 1162.87 2550.77 1165.77L2545.26 1160.67C2536.32 1157.38 2527.39 1153.99 2518.48 1150.51L2523.58 1156.74ZM2480.8 1141.34C2488.43 1144.21 2496.06 1147.02 2503.69 1149.76L2497.19 1141.99C2490.04 1139.05 2482.89 1136.05 2475.76 1133L2480.8 1141.34ZM5462.69 1232.94C5453.23 1233.45 5443.8 1233.93 5434.36 1234.37C5410.64 1245.72 5386.89 1257.03 5363.11 1268.27C5372.54 1267.56 5382 1266.8 5391.46 1266.01C5415.23 1255.05 5438.98 1244.02 5462.69 1232.94ZM5512.4 1229.9C5502.96 1230.54 5493.55 1231.14 5484.14 1231.71C5461.05 1242.52 5437.92 1253.28 5414.78 1263.98C5424.18 1263.13 5433.59 1262.24 5443.02 1261.31C5466.17 1250.9 5489.3 1240.43 5512.4 1229.9ZM5563.08 1226.07C5553.7 1226.84 5544.32 1227.58 5534.97 1228.28C5512.59 1238.5 5490.18 1248.68 5467.75 1258.8C5477.06 1257.82 5486.39 1256.8 5495.73 1255.75C5518.2 1245.91 5540.65 1236.02 5563.08 1226.07ZM5614.67 1221.51C5605.44 1222.39 5596.22 1223.24 5587.01 1224.05C5565.46 1233.64 5543.87 1243.17 5522.27 1252.66C5531.41 1251.56 5540.55 1250.44 5549.72 1249.29C5571.39 1240.08 5593.04 1230.82 5614.67 1221.51ZM5667.18 1216.22C5658.18 1217.18 5649.19 1218.11 5640.2 1219.02C5619.58 1227.92 5598.95 1236.78 5578.29 1245.59C5587.16 1244.41 5596.04 1243.21 5604.94 1241.97C5625.7 1233.44 5646.46 1224.85 5667.18 1216.22ZM5720.65 1210.2C5711.91 1211.23 5703.17 1212.24 5694.44 1213.22C5674.94 1221.38 5655.42 1229.49 5635.87 1237.56C5644.45 1236.3 5653.03 1235.03 5661.61 1233.74C5681.31 1225.94 5700.99 1218.09 5720.65 1210.2ZM5774.63 1203.53C5766.37 1204.6 5758.1 1205.65 5749.85 1206.67C5731.68 1214 5713.48 1221.29 5695.27 1228.55C5703.29 1227.28 5711.32 1226 5719.35 1224.7C5737.79 1217.68 5756.22 1210.63 5774.63 1203.53ZM5829.12 1196.26C5821.56 1197.31 5814.01 1198.33 5806.46 1199.35C5789.9 1205.76 5773.33 1212.14 5756.74 1218.49C5763.96 1217.27 5771.18 1216.04 5778.41 1214.79C5795.33 1208.64 5812.23 1202.47 5829.12 1196.26ZM5884 1188.41L5864.24 1191.29C5849.73 1196.66 5835.21 1202.01 5820.67 1207.33C5826.78 1206.23 5832.87 1205.13 5838.97 1204.01C5853.99 1198.84 5869.01 1193.63 5884 1188.41ZM5938.3 1180.19L5923.18 1182.52C5911.38 1186.67 5899.56 1190.8 5887.73 1194.92L5900.66 1192.45C5913.22 1188.39 5925.76 1184.3 5938.3 1180.19ZM5991.09 1171.82L5983.25 1173.08L5959.23 1181L5963.78 1180.1L5991.09 1171.82ZM7903.49 1222.14C7902.29 1219.67 7901.04 1217.26 7899.81 1214.84C7903.24 1239.77 7908.24 1263.2 7914.74 1285.18C7909.94 1265.2 7906.18 1244.2 7903.49 1222.14ZM7926.36 1277.85L7925.44 1275.17C7926.31 1279.12 7927.22 1283.03 7928.16 1286.9C7927.54 1283.91 7926.94 1280.89 7926.36 1277.85ZM7916.31 1220.54L7918.54 1225.25C7916.59 1207.31 7915.26 1188.75 7914.56 1169.53C7913.73 1167.35 7912.89 1165.17 7912.02 1163.02C7912.69 1182.95 7914.13 1202.12 7916.31 1220.54ZM7896.43 1184.12C7897.8 1186.36 7899.13 1188.65 7900.46 1190.93C7899.09 1172.31 7898.44 1152.98 7898.51 1132.95C7897.11 1130.15 7895.69 1127.37 7894.24 1124.63C7894.11 1145.28 7894.85 1165.1 7896.43 1184.12ZM7876.59 1154.52C7878.44 1157.03 7880.25 1159.57 7882.04 1162.13C7881.11 1143.14 7880.98 1123.39 7881.66 1102.88C7879.76 1099.84 7877.83 1096.84 7875.86 1093.89C7875.16 1114.97 7875.41 1135.18 7876.59 1154.52ZM7856.2 1129.11C7858.45 1131.7 7860.68 1134.32 7862.88 1136.98C7862.26 1117.71 7862.5 1097.63 7863.65 1076.73C7861.29 1073.62 7858.88 1070.56 7856.42 1067.55C7855.3 1089.01 7855.24 1109.52 7856.2 1129.11ZM7835.16 1106.73C7837.74 1109.27 7840.29 1111.85 7842.8 1114.46C7842.34 1095.01 7842.84 1074.7 7844.34 1053.51C7841.56 1050.46 7838.72 1047.49 7835.84 1044.56C7834.47 1066.29 7834.25 1087 7835.16 1106.73ZM7813.49 1087.02C7816.33 1089.43 7819.13 1091.87 7821.9 1094.35C7821.46 1074.77 7822.06 1054.27 7823.76 1032.83C7820.6 1029.92 7817.37 1027.08 7814.1 1024.29C7812.63 1046.28 7812.44 1067.18 7813.49 1087.02ZM2878.5 1200.33L2890.7 1199.78L2877.36 1200.05L2878.5 1200.33ZM2835.06 1202.32L2853.71 1201.45L2850.39 1200.65L2831.18 1201.11L2835.06 1202.32ZM2791.45 1204.43L2813.93 1203.32L2808.53 1201.68L2786 1202.29L2791.45 1204.43ZM2747.59 1206.66L2772.95 1205.36L2766.48 1202.84L2741.4 1203.6L2747.59 1206.66ZM2703.55 1209.01L2730.98 1207.53L2724.08 1204.15L2697.19 1205.05L2703.55 1209.01ZM2645.71 1200.81C2658.81 1203.37 2671.87 1205.7 2684.89 1207.76L2681.37 1205.59L2677.35 1205.73L2675.77 1205.79L2674.33 1205.5C2663.89 1203.4 2653.44 1201.13 2643.01 1198.7L2645.71 1200.81ZM2589.07 1188.29C2600.96 1191.21 2612.82 1193.95 2624.64 1196.49L2620.34 1193.2C2608.24 1190.13 2596.14 1186.86 2584.05 1183.39L2589.07 1188.29ZM2537.96 1174.7C2548.38 1177.68 2558.78 1180.53 2569.16 1183.25L2562.76 1177.09C2552.55 1173.98 2542.35 1170.74 2532.14 1167.36L2537.96 1174.7ZM2492.36 1160.93C2501.46 1163.82 2510.54 1166.63 2519.61 1169.34L2512.74 1160.79C2504.12 1157.81 2495.52 1154.76 2486.91 1151.61L2492.36 1160.93ZM5552.32 1190.75C5542.59 1191.05 5532.88 1191.31 5523.18 1191.53C5498.52 1203.5 5473.83 1215.43 5449.1 1227.3C5458.78 1226.81 5468.48 1226.27 5478.19 1225.69C5502.94 1214.1 5527.65 1202.45 5552.32 1190.75ZM5601.66 1188.9C5591.91 1189.33 5582.16 1189.72 5572.43 1190.07C5548.28 1201.54 5524.09 1212.97 5499.86 1224.34C5509.55 1223.71 5519.26 1223.05 5528.98 1222.33C5553.24 1211.24 5577.47 1200.09 5601.66 1188.9ZM5651.89 1186.37C5642.15 1186.92 5632.4 1187.43 5622.67 1187.91C5599.09 1198.85 5575.46 1209.74 5551.8 1220.58C5561.51 1219.8 5571.22 1218.99 5580.94 1218.15C5604.62 1207.61 5628.28 1197.01 5651.89 1186.37ZM5702.99 1183.17C5693.32 1183.84 5683.66 1184.46 5674.01 1185.06C5651.09 1195.4 5628.13 1205.71 5605.14 1215.97C5614.74 1215.07 5624.37 1214.14 5634 1213.18C5657.04 1203.23 5680.03 1193.22 5702.99 1183.17ZM5754.98 1179.33C5745.42 1180.09 5735.88 1180.81 5726.34 1181.51C5704.21 1191.22 5682.05 1200.89 5659.85 1210.52C5669.31 1209.51 5678.77 1208.49 5688.25 1207.43C5710.53 1198.11 5732.77 1188.74 5754.98 1179.33ZM5807.86 1174.85C5798.46 1175.7 5789.05 1176.51 5779.65 1177.3C5758.43 1186.32 5737.16 1195.31 5715.87 1204.25C5725.16 1203.15 5734.47 1202.03 5743.78 1200.89C5765.17 1192.25 5786.53 1183.57 5807.86 1174.85ZM5861.35 1169.8C5852.23 1170.7 5843.11 1171.58 5833.99 1172.44C5813.84 1180.71 5793.66 1188.94 5773.43 1197.14C5782.4 1195.98 5791.37 1194.79 5800.35 1193.59C5820.71 1185.7 5841.05 1177.76 5861.35 1169.8ZM5915.46 1164.19C5906.76 1165.13 5898.06 1166.06 5889.36 1166.96C5870.48 1174.39 5851.58 1181.81 5832.65 1189.18C5841.13 1188 5849.61 1186.79 5858.09 1185.57C5877.24 1178.48 5896.36 1171.36 5915.46 1164.19ZM5970.1 1158.09C5961.97 1159.03 5953.85 1159.96 5945.72 1160.87C5928.41 1167.39 5911.07 1173.89 5893.7 1180.36C5901.51 1179.19 5909.32 1178.01 5917.13 1176.81C5934.81 1170.6 5952.46 1164.36 5970.1 1158.09ZM6024.77 1151.56C6017.55 1152.45 6010.31 1153.33 6003.08 1154.2C5987.71 1159.69 5972.34 1165.17 5956.93 1170.62L5977.22 1167.38C5993.09 1162.13 6008.94 1156.86 6024.77 1151.56ZM6079.08 1144.73L6061.41 1146.99C6048.59 1151.31 6035.75 1155.61 6022.9 1159.9L6038.56 1157.28C6052.08 1153.11 6065.59 1148.93 6079.08 1144.73ZM6131.84 1137.8L6120.55 1139.31L6092.68 1148.02L6100.95 1146.58C6111.25 1143.67 6121.55 1140.74 6131.84 1137.8ZM6180.74 1131.16L6180.69 1131.17L6180.52 1131.21L6180.74 1131.16ZM7976.33 1426.31C8001.25 1471.03 8026.45 1513.25 8051.97 1553.01C8034.76 1524.03 8017.94 1493.65 8001.53 1461.81C7997.52 1456.19 7993.65 1450.44 7989.91 1444.55C7985.21 1438.64 7980.68 1432.56 7976.33 1426.31ZM7893.39 1256.36L7894.81 1258.47C7889.6 1235.7 7885.86 1211.54 7883.64 1185.93C7881.95 1183.15 7880.24 1180.39 7878.49 1177.68C7881.4 1205.82 7886.4 1232.02 7893.39 1256.36ZM7870.77 1224.8L7873.55 1228.42C7868.75 1205.88 7865.49 1181.92 7863.83 1156.51C7861.74 1153.68 7859.62 1150.88 7857.47 1148.13C7859.82 1175.56 7864.28 1201.09 7870.77 1224.8ZM7849.43 1199.3C7850.51 1200.5 7851.56 1201.75 7852.64 1202.97C7847.9 1180.55 7844.81 1156.67 7843.45 1131.25C7841.06 1128.53 7838.64 1125.86 7836.19 1123.22C7838.38 1150.53 7842.82 1175.87 7849.43 1199.3ZM7829.03 1178.06C7830.03 1179.04 7831.01 1180.06 7832 1181.05C7826.98 1158.68 7823.77 1134.73 7822.45 1109.15C7819.83 1106.6 7817.18 1104.09 7814.5 1101.62C7816.87 1129.21 7821.76 1154.67 7829.03 1178.06ZM2903.55 1206.52L2922.15 1205.33L2919.8 1204.88L2900.32 1205.71L2903.55 1206.52ZM2857.82 1209.51L2880.77 1208L2875.91 1206.8L2852.65 1207.86L2857.82 1209.51ZM2811.91 1212.59L2838.04 1210.82L2831.72 1208.84L2805.69 1210.1L2811.91 1212.59ZM2765.79 1215.78L2794.35 1213.8L2787.31 1211C2777.96 1211.47 2768.56 1211.95 2759.15 1212.43L2765.79 1215.78ZM2719.5 1219.07L2749.82 1216.91L2742.59 1213.29L2712.89 1214.88L2719.5 1219.07ZM2661.53 1213.24C2675.01 1215.19 2688.44 1216.9 2701.77 1218.32L2697.61 1215.7L2695.86 1215.79L2694.55 1215.86L2693.21 1215.67C2681.21 1213.91 2669.18 1211.94 2657.13 1209.76L2661.53 1213.24ZM2604.48 1203.59C2617.2 1206.05 2629.86 1208.3 2642.45 1210.33L2636.79 1205.88C2624.06 1203.35 2611.29 1200.59 2598.5 1197.61L2604.48 1203.59ZM2551.65 1192.32C2563.19 1195.01 2574.7 1197.54 2586.16 1199.91L2579.1 1192.93C2567.85 1190.13 2556.58 1187.17 2545.28 1184.07L2551.65 1192.32ZM2503.43 1180.28C2513.79 1183.03 2524.13 1185.67 2534.42 1188.19L2527.26 1179C2517.42 1176.15 2507.55 1173.19 2497.67 1170.13L2503.43 1180.28ZM5595.12 1147.37C5549.44 1147.2 5504 1146.22 5458.89 1144.26L5458.89 1144.26C5103.86 1132.13 4717.83 1129.04 4272.88 1141.97C4053.96 1148.34 3820.76 1158.59 3569.98 1173.55C3786.19 1166.18 3988.77 1162.63 4180.31 1161.75C4605.76 1159.8 4976.52 1171.06 5321.67 1183.21L5321.83 1183.22C5386.12 1186.17 5451.44 1186.71 5517.45 1185.32C5543.4 1172.72 5569.29 1160.06 5595.12 1147.37ZM5643.41 1147.24C5633.43 1147.33 5623.45 1147.38 5613.49 1147.39C5588.01 1159.92 5562.49 1172.42 5536.91 1184.86C5546.82 1184.6 5556.73 1184.28 5566.66 1183.94C5592.29 1171.75 5617.88 1159.52 5643.41 1147.24ZM5692.53 1146.54C5682.49 1146.74 5672.45 1146.92 5662.42 1147.04C5637.32 1159.13 5612.16 1171.17 5586.95 1183.17C5596.92 1182.77 5606.91 1182.32 5616.9 1181.84C5642.16 1170.12 5667.38 1158.35 5692.53 1146.54ZM5742.42 1145.26C5732.36 1145.57 5722.29 1145.85 5712.24 1146.1C5687.57 1157.69 5662.85 1169.24 5638.08 1180.76C5648.08 1180.22 5658.1 1179.65 5668.13 1179.04C5692.94 1167.82 5717.71 1156.56 5742.42 1145.26ZM5793.12 1143.43C5783.07 1143.84 5773.02 1144.23 5762.99 1144.58C5738.86 1155.63 5714.67 1166.65 5690.44 1177.62C5700.42 1176.97 5710.4 1176.27 5720.39 1175.55C5744.68 1164.88 5768.92 1154.17 5793.12 1143.43ZM5844.56 1141.07C5834.57 1141.57 5824.59 1142.05 5814.6 1142.5C5791.1 1152.97 5767.54 1163.39 5743.94 1173.78C5753.86 1173.01 5763.78 1172.21 5773.7 1171.38C5797.37 1161.32 5820.98 1151.21 5844.56 1141.07ZM5896.8 1138.2C5886.88 1138.79 5876.96 1139.35 5867.05 1139.89C5844.28 1149.71 5821.46 1159.49 5798.59 1169.24C5808.44 1168.37 5818.29 1167.47 5828.15 1166.55C5851.08 1157.14 5873.97 1147.69 5896.8 1138.2ZM5949.61 1134.87C5939.85 1135.52 5930.09 1136.16 5920.32 1136.77C5898.43 1145.88 5876.49 1154.97 5854.51 1164.02C5864.18 1163.07 5873.84 1162.09 5883.51 1161.09C5905.59 1152.38 5927.62 1143.64 5949.61 1134.87ZM6002.97 1131.11C5993.46 1131.81 5983.96 1132.5 5974.45 1133.16C5953.6 1141.51 5932.71 1149.82 5911.77 1158.11C5921.13 1157.1 5930.5 1156.07 5939.86 1155.02C5960.94 1147.08 5981.97 1139.11 6002.97 1131.11ZM6056.87 1126.95C6047.71 1127.68 6038.55 1128.41 6029.4 1129.11C6009.79 1136.6 5990.14 1144.08 5970.45 1151.53C5979.42 1150.49 5988.39 1149.43 5997.35 1148.36C6017.23 1141.25 6037.07 1134.11 6056.87 1126.95ZM6111 1122.46C6102.37 1123.2 6093.74 1123.92 6085.1 1124.64C6066.99 1131.21 6048.85 1137.77 6030.67 1144.31C6039.04 1143.28 6047.39 1142.22 6055.76 1141.16C6074.21 1134.95 6092.62 1128.71 6111 1122.46ZM6165.12 1117.7L6141.54 1119.81C6125.31 1125.35 6109.05 1130.88 6092.76 1136.4L6115.12 1133.46C6131.82 1128.22 6148.49 1122.97 6165.12 1117.7ZM6218.74 1112.78L6198.61 1114.65C6184.77 1119.05 6170.91 1123.45 6157.03 1127.83L6175.41 1125.31C6189.87 1121.15 6204.33 1116.97 6218.74 1112.78ZM6270.99 1107.82L6256.37 1109.22L6224.69 1118.44L6236.62 1116.76L6270.99 1107.82ZM6319.67 1103.09L6314.79 1103.56L6298.06 1107.95L6298.67 1107.86L6319.67 1103.09ZM2976.38 1208.95L2994.68 1207.49L2993.39 1207.3L2974 1208.48L2976.38 1208.95ZM2928.47 1212.85L2951.64 1210.95L2947.4 1210.13L2923.7 1211.62L2928.47 1212.85ZM2880.44 1216.82L2907.24 1214.59L2901.17 1213.06L2874.28 1214.82L2880.44 1216.82ZM2832.22 1220.88L2861.72 1218.39L2854.66 1216.11L2825.39 1218.08L2832.22 1220.88ZM2783.86 1225.02L2815.41 1222.31L2807.93 1219.26L2776.84 1221.41L2783.86 1225.02ZM2735.33 1229.25L2768.43 1226.36L2760.93 1222.53L2728.5 1224.84L2735.33 1229.25ZM2677.09 1225.75C2690.98 1227.09 2704.76 1228.16 2718.43 1228.95L2713.69 1225.9L2713.24 1225.94L2712.13 1225.83C2698.65 1224.56 2685.1 1223.01 2671.47 1221.21L2677.09 1225.75ZM2619.38 1218.75C2632.85 1220.7 2646.22 1222.42 2659.51 1223.91L2652.88 1218.6C2639.56 1216.62 2626.18 1214.4 2612.73 1211.94L2619.38 1218.75ZM2564.81 1209.73C2577.37 1212.05 2589.86 1214.2 2602.27 1216.16L2594.73 1208.51C2582.56 1206.11 2570.36 1203.54 2558.09 1200.79L2564.81 1209.73ZM2514.12 1199.51C2525.63 1202.01 2537.09 1204.38 2548.48 1206.62L2541.09 1196.86C2530.14 1194.28 2519.17 1191.56 2508.16 1188.71L2514.12 1199.51ZM5687.36 1101.78C5657.17 1101.15 5627.02 1100.24 5596.96 1099.01L5596.96 1099.01C5231.92 1086.87 4830.39 1091.95 4365.3 1115.87C4153.87 1126.75 3929.28 1141.53 3688.98 1160.36C3894.7 1149.07 4088.42 1141 4272.1 1135.66C4717.73 1122.69 5104.31 1125.79 5459.82 1137.94L5459.95 1137.96C5508.9 1140.09 5558.25 1141.06 5607.93 1141.08C5634.47 1128.01 5660.95 1114.91 5687.36 1101.78ZM5735.81 1102.55C5725.54 1102.43 5715.27 1102.29 5705 1102.11C5678.87 1115.12 5652.67 1128.1 5626.41 1141.03C5636.54 1140.99 5646.69 1140.91 5656.84 1140.78C5683.22 1128.08 5709.55 1115.33 5735.81 1102.55ZM5784.95 1102.88C5774.61 1102.86 5764.27 1102.81 5753.93 1102.73C5728.02 1115.35 5702.02 1127.95 5675.97 1140.51C5686.19 1140.35 5696.43 1140.14 5706.67 1139.9C5732.83 1127.6 5758.92 1115.26 5784.95 1102.88ZM5834.68 1102.78C5824.32 1102.84 5813.94 1102.88 5803.58 1102.89C5777.95 1115.09 5752.25 1127.26 5726.49 1139.39C5736.76 1139.11 5747.04 1138.78 5757.33 1138.43C5783.19 1126.58 5808.97 1114.7 5834.68 1102.78ZM5885.07 1102.29C5874.7 1102.43 5864.33 1102.55 5853.96 1102.64C5828.72 1114.35 5803.41 1126.03 5778.04 1137.68C5788.32 1137.28 5798.62 1136.86 5808.91 1136.4C5834.36 1125.07 5859.76 1113.69 5885.07 1102.29ZM5936.04 1101.43C5925.7 1101.64 5915.35 1101.83 5904.99 1102C5880.24 1113.16 5855.42 1124.3 5830.54 1135.4C5840.81 1134.9 5851.09 1134.38 5861.37 1133.83C5886.32 1123.06 5911.22 1112.26 5936.04 1101.43ZM5987.59 1100.23C5977.28 1100.5 5966.96 1100.75 5956.65 1100.99C5932.49 1111.54 5908.26 1122.07 5883.98 1132.57C5894.23 1131.99 5904.49 1131.38 5914.74 1130.74C5939.09 1120.6 5963.37 1110.42 5987.59 1100.23ZM6039.6 1098.71C6029.37 1099.04 6019.15 1099.34 6008.92 1099.64C5985.48 1109.52 5961.98 1119.39 5938.43 1129.22C5948.59 1128.56 5958.75 1127.87 5968.91 1127.16C5992.54 1117.7 6016.1 1108.22 6039.6 1098.71ZM6091.97 1096.93C6081.92 1097.3 6071.87 1097.64 6061.81 1097.98C6039.24 1107.13 6016.6 1116.27 5993.91 1125.37C6003.89 1124.64 6013.88 1123.9 6023.86 1123.13C6046.63 1114.42 6069.33 1105.68 6091.97 1096.93ZM6144.79 1094.91C6134.94 1095.3 6125.09 1095.69 6115.24 1096.06C6093.7 1104.41 6072.09 1112.74 6050.44 1121.05C6060.2 1120.27 6069.95 1119.48 6079.71 1118.67C6101.46 1110.77 6123.15 1102.85 6144.79 1094.91ZM6197.78 1092.71L6169.19 1093.91C6148.88 1101.38 6128.51 1108.84 6108.09 1116.28C6117.49 1115.48 6126.88 1114.66 6136.27 1113.84C6156.82 1106.81 6177.33 1099.76 6197.78 1092.71ZM6250.84 1090.37L6223.6 1091.58C6204.77 1098.1 6185.89 1104.61 6166.96 1111.1L6193.58 1108.67C6212.72 1102.58 6231.8 1096.47 6250.84 1090.37ZM6303.65 1087.95L6278.38 1089.12C6261.36 1094.59 6244.29 1100.07 6227.19 1105.53L6251.54 1103.23C6268.95 1098.14 6286.33 1093.05 6303.65 1087.95ZM6355.9 1085.53L6349.34 1085.83L6333.56 1086.57C6318.83 1090.91 6304.05 1095.26 6289.24 1099.6L6310.17 1097.56C6325.46 1093.55 6340.7 1089.54 6355.9 1085.53ZM6406.68 1083.18L6389.08 1083.99L6353.99 1093.25L6369.39 1091.73L6406.68 1083.18ZM6454.27 1081.02L6444.69 1081.44L6423.05 1086.42L6429.1 1085.81L6443.42 1083.08L6454.27 1081.02ZM3053.52 1209.56L3071.11 1207.88L3052.17 1209.35L3053.52 1209.56ZM3003.43 1214.38L3026.6 1212.14L3023.15 1211.63L2999.25 1213.53L3003.43 1214.38ZM2953.19 1219.27L2980.41 1216.62L2974.78 1215.49L2947.27 1217.72L2953.19 1219.27ZM2902.84 1224.24L2933.16 1221.24L2926.22 1219.44L2895.96 1221.94L2902.84 1224.24ZM2852.36 1229.27L2884.99 1226.01L2877.37 1223.49L2845.07 1226.21L2852.36 1229.27ZM2801.75 1234.36L2836.18 1230.89L2828.35 1227.63L2794.46 1230.53L2801.75 1234.36ZM2751.01 1239.51L2786.77 1235.88L2779.08 1231.86L2744.02 1234.92L2751.01 1239.51ZM2692.44 1238.33C2706.74 1239.06 2720.91 1239.51 2734.92 1239.66L2729.08 1235.84C2714.82 1235.19 2700.44 1234.23 2685.95 1232.98L2692.44 1238.33ZM2633.94 1233.87C2648.11 1235.29 2662.14 1236.45 2676.04 1237.36L2668.71 1231.36C2654.82 1229.96 2640.84 1228.29 2626.76 1226.37L2633.94 1233.87ZM2577.63 1227.08C2591.12 1228.98 2604.49 1230.67 2617.76 1232.15L2609.88 1223.97C2596.88 1222.03 2583.79 1219.88 2570.62 1217.54L2577.63 1227.08ZM2524.54 1218.67C2537.1 1220.87 2549.59 1222.91 2562 1224.8L2554.44 1214.58C2542.49 1212.32 2530.48 1209.9 2518.4 1207.34L2524.54 1218.67ZM5780.24 1055.34C5765.21 1054.85 5750.17 1054.33 5735.13 1053.76C5360.08 1041.62 4943.01 1054.85 4457.69 1089.77C4255.37 1104.33 4041.21 1122.65 3813.33 1144.47C4006.69 1130.14 4189.75 1118.54 4363.91 1109.58C4829.86 1085.61 5232.15 1080.53 5597.94 1092.7L5598.04 1092.7C5631.81 1094.08 5665.69 1095.05 5699.63 1095.67C5726.58 1082.25 5753.45 1068.8 5780.24 1055.34ZM5829.32 1056.78C5818.68 1056.5 5808.05 1056.2 5797.41 1055.87C5770.8 1069.26 5744.1 1082.63 5717.34 1095.97C5727.73 1096.13 5738.14 1096.25 5748.55 1096.34C5775.55 1083.18 5802.49 1069.99 5829.32 1056.78ZM5878.85 1057.99C5868.17 1057.75 5857.49 1057.5 5846.79 1057.23C5820.2 1070.33 5793.51 1083.42 5766.76 1096.47C5777.25 1096.53 5787.74 1096.56 5798.23 1096.56C5825.19 1083.73 5852.07 1070.86 5878.85 1057.99ZM5928.72 1058.97C5918.03 1058.78 5907.33 1058.58 5896.63 1058.36C5870.14 1071.1 5843.58 1083.83 5816.94 1096.53C5827.47 1096.5 5838.02 1096.44 5848.56 1096.35C5875.36 1083.92 5902.08 1071.45 5928.72 1058.97ZM5978.99 1059.76C5968.3 1059.61 5957.63 1059.45 5946.93 1059.28C5920.68 1071.59 5894.32 1083.9 5867.89 1096.18C5878.46 1096.06 5889.03 1095.92 5899.6 1095.75C5926.15 1083.78 5952.62 1071.78 5978.99 1059.76ZM6029.56 1060.39L5997.59 1060.01C5971.68 1071.82 5945.67 1083.63 5919.59 1095.41C5930.15 1095.22 5940.71 1095.01 5951.28 1094.77C5977.45 1083.33 6003.55 1071.86 6029.56 1060.39ZM6080.48 1060.88L6048.59 1060.59C6023.13 1071.83 5997.59 1083.07 5971.97 1094.29C5982.53 1094.03 5993.11 1093.75 6003.67 1093.45C6029.35 1082.61 6054.96 1071.75 6080.48 1060.88ZM6131.58 1061.28L6099.9 1061.04C6075.05 1071.65 6050.09 1082.25 6025.07 1092.82C6035.59 1092.5 6046.1 1092.17 6056.62 1091.82C6081.68 1081.65 6106.68 1071.47 6131.58 1061.28ZM6182.8 1061.62L6151.53 1061.41C6127.4 1071.3 6103.18 1081.18 6078.89 1091.06C6089.3 1090.69 6099.7 1090.31 6110.1 1089.92C6134.42 1080.49 6158.65 1071.05 6182.8 1061.62ZM6234.23 1061.92L6220.87 1061.84L6203.4 1061.74C6180.15 1070.83 6156.83 1079.93 6133.42 1089.02C6143.7 1088.61 6153.96 1088.2 6164.22 1087.77C6187.63 1079.16 6210.98 1070.54 6234.23 1061.92ZM6285.63 1062.24L6255.43 1062.04C6233.24 1070.28 6210.98 1078.52 6188.64 1086.75L6218.79 1085.45C6241.15 1077.71 6263.43 1069.97 6285.63 1062.24ZM6336.97 1062.6L6307.63 1062.39C6286.71 1069.68 6265.71 1076.99 6244.64 1084.3L6273.85 1082.97C6294.96 1076.18 6316.01 1069.39 6336.97 1062.6ZM6388.03 1063.05L6359.9 1062.79C6340.47 1069.09 6320.96 1075.4 6301.39 1081.71L6329.26 1080.42C6348.92 1074.62 6368.51 1068.84 6388.03 1063.05ZM6438.62 1063.64L6412.23 1063.32L6359.12 1079.03L6385.07 1077.82L6438.62 1063.64ZM6488.47 1064.37C6480.52 1064.24 6472.55 1064.12 6464.56 1064L6458.35 1065.65L6418.14 1076.3L6441.17 1075.25L6449.62 1073.3L6488.47 1064.37ZM6536.79 1065.3C6530.12 1065.16 6523.45 1065.01 6516.75 1064.88L6478.93 1073.57L6497.47 1072.77L6536.79 1065.3ZM6582.19 1066.36L6568.77 1066.03L6543.26 1070.86L6553.93 1070.44L6582.19 1066.36ZM3135.15 1208.3L3136.28 1208.17L3135.05 1208.29L3135.15 1208.3ZM3082.78 1214.09L3105.75 1211.55L3103.31 1211.28L3079.36 1213.55L3082.78 1214.09ZM3030.34 1219.93L3057.81 1216.87L3052.77 1216.09L3024.83 1218.78L3030.34 1219.93ZM2977.77 1225.82L3008.7 1222.35L3002.03 1220.98L2970.99 1224L2977.77 1225.82ZM2925.12 1231.77L2958.73 1227.97L2951.11 1225.95L2917.69 1229.24L2925.12 1231.77ZM2872.38 1237.76L2907.99 1233.71L2899.94 1230.99L2864.74 1234.5L2872.38 1237.76ZM2819.54 1243.79L2856.71 1239.54L2848.62 1236.11L2812.04 1239.79L2819.54 1243.79ZM2766.53 1249.83L2767.13 1249.81L2804.93 1245.47L2797.09 1241.3L2759.48 1245.13L2766.53 1249.83ZM2707.66 1251.01C2722.39 1251.14 2736.9 1250.96 2751.25 1250.47L2744.55 1246.01C2730.03 1246 2715.36 1245.68 2700.53 1245.04L2707.66 1251.01ZM2648.21 1248.99C2663.05 1249.86 2677.72 1250.45 2692.22 1250.78L2684.38 1244.24C2669.94 1243.42 2655.36 1242.32 2640.66 1240.96L2648.21 1248.99ZM2590.15 1244.36C2604.5 1245.79 2618.72 1247.02 2632.8 1248L2624.65 1239.37C2610.85 1237.92 2596.95 1236.24 2582.94 1234.36L2590.15 1244.36ZM2534.74 1237.87C2548.3 1239.69 2561.75 1241.32 2575.09 1242.78L2567.41 1232.19C2554.52 1230.32 2541.55 1228.28 2528.49 1226.06L2534.74 1237.87ZM5872.99 1008.49C5487.94 996.374 5055.42 1017.77 4550.07 1063.66C4358.9 1081.02 4157.28 1101.89 3943.85 1125.78C4122.82 1109.34 4293.13 1095.21 4455.77 1083.5C4942.02 1048.52 5360.01 1035.27 5736.08 1047.44L5736.16 1047.44C5754.83 1048.15 5773.48 1048.79 5792.12 1049.36C5819.17 1035.75 5846.12 1022.12 5872.99 1008.49ZM5923.43 1010.25L5889.99 1009.08C5863.19 1022.68 5836.3 1036.29 5809.31 1049.88C5820.07 1050.19 5830.81 1050.48 5841.55 1050.76C5868.94 1037.27 5896.23 1023.76 5923.43 1010.25ZM5973.92 1012.05L5940.53 1010.85C5913.47 1024.3 5886.31 1037.75 5859.06 1051.19C5869.86 1051.45 5880.66 1051.69 5891.46 1051.92C5919.04 1038.64 5946.53 1025.35 5973.92 1012.05ZM6024.38 1013.92L5991.12 1012.68C5963.93 1025.88 5936.65 1039.09 5909.27 1052.28C5920.1 1052.49 5930.93 1052.68 5941.74 1052.86C5969.39 1039.89 5996.94 1026.9 6024.38 1013.92ZM6074.83 1015.88L6041.74 1014.58C6014.59 1027.44 5987.33 1040.3 5959.97 1053.15C5970.82 1053.32 5981.65 1053.47 5992.47 1053.62C6020.03 1041.04 6047.49 1028.46 6074.83 1015.88ZM6125.21 1017.96C6114.27 1017.49 6103.31 1017.04 6092.34 1016.59C6065.36 1029.01 6038.26 1041.43 6011.07 1053.85L6043.54 1054.21C6070.87 1042.13 6098.1 1030.04 6125.21 1017.96ZM6175.54 1020.19C6164.67 1019.7 6153.79 1019.21 6142.88 1018.73C6116.23 1030.61 6089.45 1042.51 6062.58 1054.4L6095.01 1054.69C6121.96 1043.19 6148.81 1031.68 6175.54 1020.19ZM6225.68 1022.59C6214.92 1022.06 6204.13 1021.53 6193.32 1021.02C6167.15 1032.29 6140.85 1043.56 6114.45 1054.83L6146.76 1055.06C6173.17 1044.24 6199.49 1033.41 6225.68 1022.59ZM6275.6 1025.18C6264.98 1024.61 6254.34 1024.05 6243.67 1023.5C6218.13 1034.06 6192.46 1044.63 6166.7 1055.2L6198.72 1055.39C6224.46 1045.31 6250.09 1035.24 6275.6 1025.18ZM6325.36 1028.01C6314.88 1027.39 6304.38 1026.78 6293.86 1026.19C6269.11 1035.95 6244.24 1045.73 6219.29 1055.51L6221.03 1055.52L6251 1055.7C6275.89 1046.46 6300.68 1037.22 6325.36 1028.01ZM6374.8 1031.07C6364.5 1030.4 6354.18 1029.75 6343.83 1029.12C6320.04 1038.01 6296.14 1046.91 6272.16 1055.83L6303.41 1056.04C6327.3 1047.7 6351.11 1039.37 6374.8 1031.07ZM6423.89 1034.4C6413.82 1033.69 6403.73 1032.99 6393.62 1032.31C6370.97 1040.25 6348.22 1048.21 6325.38 1056.19L6356.02 1056.44L6423.89 1034.4ZM6472.5 1038.03C6462.72 1037.26 6452.91 1036.52 6443.09 1035.79L6378.86 1056.65L6408.63 1056.96L6452.28 1044.02L6472.5 1038.03ZM6520.58 1041.94C6511.16 1041.14 6501.73 1040.36 6492.26 1039.59L6459.19 1049.4L6432.73 1057.24C6442.28 1057.36 6451.83 1057.49 6461.35 1057.62L6520.58 1041.94ZM6567.92 1046.18C6559.01 1045.35 6550.09 1044.53 6541.14 1043.74L6487.15 1058.02C6496.14 1058.17 6505.11 1058.33 6514.06 1058.5C6532.09 1054.36 6550.03 1050.26 6567.92 1046.18ZM6614.25 1050.72C6606.03 1049.88 6597.82 1049.05 6589.56 1048.25L6542.11 1059.07C6550.33 1059.25 6558.53 1059.44 6566.72 1059.64C6582.62 1056.64 6598.46 1053.66 6614.25 1050.72ZM6659.03 1055.5C6651.9 1054.7 6644.75 1053.92 6637.58 1053.16C6624.56 1055.57 6611.5 1058 6598.39 1060.46C6605.37 1060.66 6612.36 1060.85 6619.32 1061.06C6632.6 1059.18 6645.84 1057.33 6659.03 1055.5ZM6701.06 1060.37L6685.12 1058.48C6675.84 1059.75 6666.55 1061.03 6657.23 1062.33L6671.72 1062.87C6681.52 1062.02 6691.3 1061.18 6701.06 1060.37ZM6736.72 1064.82L6732.36 1064.25L6722.81 1065.01L6724.02 1065.07L6736.72 1064.82ZM3166.55 1211.9L3189.09 1209.1L3187.79 1209L3164.03 1211.61L3166.55 1211.9ZM3111.82 1218.73L3139.35 1215.29L3135.02 1214.8L3106.8 1217.91L3111.82 1218.73ZM3057.06 1225.58L3088.41 1221.65L3082.11 1220.65L3050.46 1224.17L3057.06 1225.58ZM3002.16 1232.47L3036.54 1228.15L3029.01 1226.57L2994.67 1230.42L3002.16 1232.47ZM2947.23 1239.39L2983.95 1234.76L2975.77 1232.54L2939.34 1236.65L2947.23 1239.39ZM2892.23 1246.34L2930.69 1241.48L2922.29 1238.58L2884.3 1242.89L2892.23 1246.34ZM2837.17 1253.3L2877.01 1248.26L2868.7 1244.67L2829.5 1249.14L2837.17 1253.3ZM2781.88 1260.19L2785 1259.92L2822.89 1255.11L2814.92 1250.81L2774.83 1255.42L2781.88 1260.19ZM2722.76 1263.81C2737.9 1263.33 2752.83 1262.53 2767.52 1261.4L2760.2 1256.46C2745.38 1257.08 2730.37 1257.38 2715.18 1257.35L2722.76 1263.81ZM2662.26 1264.13C2677.74 1264.43 2693.02 1264.45 2708.08 1264.17L2699.89 1257.23C2684.92 1257 2669.77 1256.49 2654.45 1255.69L2662.26 1264.13ZM2602.48 1261.68C2617.65 1262.62 2632.64 1263.31 2647.47 1263.76L2639.16 1254.79C2624.62 1253.86 2609.94 1252.7 2595.11 1251.29L2602.48 1261.68ZM2544.76 1257.03C2559.27 1258.45 2573.66 1259.69 2587.89 1260.71L2580.13 1249.79C2566.34 1248.35 2552.43 1246.7 2538.42 1244.87L2544.76 1257.03ZM2604.95 1285.03C2589.48 1284.53 2573.84 1283.8 2558.02 1282.83C2571.97 1310.19 2585.86 1338.05 2599.82 1366.05C2727.37 1622.05 2861.26 1890.78 3111.75 1907.31C3407.92 1926.85 3747.84 1867.95 4107.75 1760.8C3799.16 1842.55 3507.29 1885.24 3248.13 1868.32C2985.96 1851.91 2828.3 1616.87 2673.03 1385.37C2650.38 1351.62 2627.8 1317.94 2604.95 1285.03ZM2667.64 1285.81C2651.68 1285.97 2635.48 1285.83 2619.1 1285.44C2641.41 1317.6 2663.46 1350.48 2685.56 1383.43C2839.58 1613.05 2995.96 1846.18 3249.86 1862.05L3249.89 1862.05C3544.74 1881.3 3883.04 1822.42 4240.53 1716.26C3934.31 1797.09 3644.14 1839.68 3386.36 1823.07L3386.36 1823.08C3120.79 1807.3 2943.03 1602.09 2763.48 1394.81C2731.75 1358.19 2699.96 1321.5 2667.64 1285.81ZM2730.62 1283.55C2714.6 1284.54 2698.33 1285.21 2681.81 1285.56C2713.46 1320.58 2744.59 1356.52 2775.66 1392.39C2953.72 1597.95 3130.03 1801.46 3387.96 1816.79L3388.04 1816.8C3681.19 1835.71 4017.34 1777.05 4371.78 1672.32C4068.51 1751.84 3780.59 1794.11 3524.56 1777.82L3524.56 1777.82C3255.41 1762.58 3059.6 1583.07 2857.9 1398.15C2815.97 1359.7 2773.77 1321.02 2730.62 1283.55ZM2791.79 1278.02C2776.32 1279.9 2760.56 1281.42 2744.57 1282.61C2786.93 1319.47 2828.38 1357.46 2869.57 1395.22C3069.62 1578.63 3263.83 1756.68 3526.05 1771.53L3526.16 1771.54C3814.78 1789.93 4145.07 1732.89 4492.58 1631.64L4495.65 1630.51C4198.08 1707.34 3914.99 1748.4 3662.73 1732.57L3662.73 1732.57C3390.06 1717.83 3177.99 1560.97 2956.13 1396.88C2902.27 1357.04 2847.8 1316.76 2791.79 1278.02ZM2850.23 1270.1L2806.45 1276.14L2805.32 1276.28C2860.48 1314.51 2914.12 1354.17 2967.18 1393.43C3187.3 1556.24 3397.7 1711.87 3664.17 1726.28L3664.3 1726.29C3934.02 1743.24 4240.01 1694.24 4561.66 1605.72C4567.92 1603.34 4574.17 1600.96 4580.44 1598.55C4302.85 1666.32 4038.32 1702 3800.9 1687.31L3800.9 1687.31C3525.04 1673.04 3298.38 1536.53 3058.33 1391.97C2990.51 1351.11 2921.58 1309.63 2850.23 1270.1ZM2908.46 1262.07L2864.22 1268.17C2934.3 1307.11 3002 1347.87 3068.65 1388.03C3306.92 1531.53 3531.92 1667.03 3802.29 1681.02L3802.42 1681.03C4053.5 1696.59 4335.85 1655.03 4632.26 1578.47C4642.1 1574.61 4651.96 1570.71 4661.81 1566.81C4405.39 1625.32 4160.54 1655.54 3939.08 1642.05L3939.08 1642.06C3660.6 1628.24 3421.07 1510.28 3164.92 1384.13C3081.81 1343.2 2996.93 1301.4 2908.46 1262.07ZM2966.59 1254.05L2936.17 1258.25L2923.27 1260.03C3009.83 1298.69 3092.94 1339.62 3174.37 1379.72C3428.79 1505.02 3666.7 1622.19 3940.42 1635.77L3940.57 1635.78C4173.18 1649.96 4432.39 1615.27 4704.07 1549.95C4716.67 1544.89 4729.27 1539.79 4741.89 1534.65C4506.95 1584.17 4282.14 1609.09 4077.09 1596.8L4077.09 1596.8C3796.94 1583.42 3546.46 1482.53 3276.62 1373.85C3176.76 1333.62 3074.21 1292.32 2966.59 1254.05ZM3024.63 1246.05L2982.54 1251.85C3087.46 1289.4 3187.55 1329.71 3285.09 1368.99C3553.38 1477.05 3802.42 1577.35 4078.54 1590.51L4078.69 1590.51C4293.14 1603.36 4529.88 1574.96 4777.56 1520.05C4792.51 1513.9 4807.49 1507.68 4822.46 1501.43C4608.79 1542.53 4403.81 1562.64 4215.24 1551.55L4215.24 1551.53C3934.65 1538.65 3675.38 1453.58 3394.57 1361.45C3276.16 1322.6 3153.87 1282.49 3024.63 1246.05ZM3082.53 1238.07L3042.07 1243.64C3167.66 1279.35 3286.68 1318.38 3402.01 1356.22C3681.44 1447.9 3939.43 1532.55 4216.66 1545.25L4216.84 1545.25C4413.5 1556.82 4628.6 1533.98 4853.1 1488.58C4869.86 1481.52 4886.63 1474.4 4903.4 1467.23C4710.76 1500.52 4525.42 1516.2 4353.41 1506.29L4353.41 1506.29C4074.18 1493.93 3808.84 1423.6 3520.47 1347.16C3381.24 1310.26 3236.59 1271.93 3082.53 1238.07ZM3140.34 1230.1L3101.99 1235.39C3251.2 1268.56 3391.54 1305.76 3526.82 1341.62C3814.03 1417.74 4078.3 1487.79 4354.78 1500L4354.96 1500C4534.06 1510.32 4728.11 1492.5 4930.08 1455.78C4948.44 1447.88 4966.8 1439.91 4985.17 1431.88C4813.12 1458.06 4647.09 1469.8 4491.59 1461.04L4491.59 1461.03C4216.3 1449.28 3948.43 1392.68 3656.97 1331.1C3493.94 1296.66 3323.48 1260.65 3140.34 1230.1ZM3197.99 1222.17L3162.27 1227.08C3339.15 1257.05 3504.21 1291.9 3662.28 1325.3C3952.82 1386.69 4219.85 1443.11 4492.9 1454.75L4493.07 1454.75C4654.91 1463.86 4828.57 1450.45 5008.77 1421.54C5028.59 1412.83 5048.41 1404.04 5068.22 1395.21C4916.25 1415.07 4769.05 1423.42 4629.93 1415.8L4629.93 1415.8C4362.49 1404.79 4096.92 1360.94 3808.33 1313.3C3617.39 1281.76 3416.27 1248.57 3197.99 1222.17ZM3255.59 1214.26L3223.19 1218.71C3433.45 1244.71 3627.78 1276.78 3812.61 1307.3C4100.4 1354.82 4365.22 1398.54 4631.02 1409.48L4631.22 1409.49C4776.06 1417.45 4929.98 1407.86 5089.15 1385.85C5110.28 1376.38 5131.41 1366.83 5152.54 1357.23C5019.96 1371.6 4891.03 1377.1 4768.08 1370.54L4768.08 1370.54C4514.49 1360.45 4258.51 1328.35 3981.53 1293.63C3756.73 1265.43 3518 1235.52 3255.59 1214.26ZM3312.96 1206.39L3284.81 1210.25C3537.09 1231.38 3767.44 1260.25 3984.83 1287.51C4261.16 1322.15 4516.53 1354.17 4769.16 1364.23L4769.34 1364.24C4897.5 1371.09 5032.41 1364.68 5171.37 1348.65C5193.66 1338.47 5215.95 1328.22 5238.21 1317.92C5124.38 1327.65 5013.22 1330.82 4906.25 1325.29L4906.25 1325.29C4676.12 1316.42 4441.11 1294.92 4189.02 1271.86C3921.23 1247.37 3634.06 1221.1 3312.96 1206.39ZM3370.34 1198.54L3347.53 1201.66C3655.73 1216.65 3932.63 1241.97 4191.46 1265.64C4443.08 1288.66 4677.65 1310.13 4907.28 1318.97L4907.46 1318.98C5019.24 1324.78 5135.8 1320.95 5255.34 1309.98C5278.69 1299.13 5302.03 1288.22 5325.34 1277.25C5229.57 1283.21 5135.62 1284.58 5044.42 1280.03L5044.42 1280.03C4855.16 1272.97 4660.61 1260.62 4455.06 1247.58C4129.27 1226.92 3775.72 1204.49 3370.34 1198.54ZM3427.32 1190.76L3411.77 1192.88C3800.54 1199.69 4141.62 1221.32 4456.76 1241.31C4661.86 1254.32 4855.96 1266.64 5045.4 1273.71L5045.59 1273.73C5141.27 1278.51 5240.12 1276.71 5341.02 1269.85C5365.35 1258.37 5389.64 1246.83 5413.91 1235.23C5335.49 1238.31 5258.22 1238.4 5182.57 1234.77L5182.57 1234.78C5070.16 1230.71 4953.26 1225.71 4832.87 1220.56C4421.38 1202.97 3968.61 1183.62 3427.32 1190.76ZM3484.59 1182.98L3478.36 1183.82C3997.62 1178.51 4435.17 1197.22 4834 1214.27C4952.87 1219.35 5068.3 1224.29 5183.55 1228.46L5183.71 1228.47C5263.57 1232.31 5345.36 1231.94 5428.45 1228.28C5453.64 1216.21 5478.78 1204.09 5503.88 1191.91C5442.15 1192.95 5381.03 1192.28 5320.75 1189.52L5320.75 1189.52C4975.66 1177.38 4605.04 1166.12 4180.42 1168.07C3963.9 1169.06 3733.22 1173.48 3484.59 1182.98ZM5963.79 962.232C5445.03 950.677 4835.51 1008.43 4081.38 1104.14C4243.53 1086.6 4398.73 1070.96 4547.64 1057.44C5054.23 1011.44 5487.91 990.007 5874.21 1002.18L5874.26 1002.18L5884.7 1002.55C5911.16 989.105 5937.52 975.665 5963.79 962.232ZM6016.67 963.728C6004.84 963.352 5993.01 962.958 5981.1 962.639C5954.73 976.13 5928.25 989.635 5901.69 1003.14L5935.36 1004.32C5962.57 990.782 5989.67 977.25 6016.67 963.728ZM6069.09 965.652C6057.38 965.163 6045.68 964.665 6033.87 964.256C6006.84 977.802 5979.7 991.364 5952.44 1004.92L5986.08 1006.14C6013.87 992.634 6041.54 979.135 6069.09 965.652ZM6120.99 968.001C6109.4 967.397 6097.69 966.905 6085.99 966.4C6058.53 979.845 6030.95 993.31 6003.26 1006.77L6036.79 1008.04C6064.98 994.683 6093.05 981.328 6120.99 968.001ZM6172 971.008C6160.59 970.293 6149.11 969.642 6137.63 968.982C6109.93 982.206 6082.09 995.451 6054.14 1008.7C6065.3 1009.14 6076.43 1009.59 6087.54 1010.04C6115.82 997.016 6143.98 983.997 6172 971.008ZM6222.39 974.497C6211.2 973.669 6200.08 972.765 6188.82 972.005C6161.02 984.898 6133.07 997.822 6105.01 1010.76C6116.1 1011.21 6127.17 1011.68 6138.22 1012.17C6166.41 999.594 6194.48 987.029 6222.39 974.497ZM6272.32 978.435C6261.24 977.488 6250.11 976.583 6238.94 975.728C6211.38 988.105 6183.67 1000.52 6155.85 1012.94C6166.89 1013.43 6177.9 1013.94 6188.89 1014.45C6216.84 1002.42 6244.65 990.411 6272.32 978.435ZM6321.56 982.882C6310.63 981.82 6299.59 980.872 6288.56 979.902C6261.39 991.667 6234.07 1003.47 6206.63 1015.29C6217.59 1015.82 6228.52 1016.36 6239.43 1016.91C6266.94 1005.54 6294.33 994.194 6321.56 982.882ZM6369.81 987.963C6359.14 986.797 6348.45 985.647 6337.72 984.53C6311.08 995.596 6284.29 1006.71 6257.37 1017.84C6268.21 1018.4 6279.01 1018.99 6289.8 1019.59C6316.61 1009.01 6343.28 998.463 6369.81 987.963ZM6417.61 993.497C6407.14 992.219 6396.69 990.913 6386.15 989.714C6360.24 999.974 6334.19 1010.28 6308.01 1020.61C6318.73 1021.22 6329.43 1021.85 6340.11 1022.5C6366.08 1012.8 6391.92 1003.12 6417.61 993.497ZM6464.85 999.466C6454.52 998.076 6444.09 996.786 6433.66 995.497C6408.74 1004.83 6383.68 1014.22 6358.5 1023.64C6369.08 1024.3 6379.63 1024.98 6390.16 1025.68L6450.26 1004.59L6464.85 999.466ZM6511.07 1006.07C6500.99 1004.58 6490.86 1003.17 6480.74 1001.74L6458.05 1009.7L6408.9 1026.95C6419.3 1027.66 6429.68 1028.4 6440.03 1029.16L6451.48 1025.43L6511.07 1006.07ZM6556.52 1013.16C6546.78 1011.59 6537.1 1009.94 6527.31 1008.42L6459.13 1030.57C6469.31 1031.34 6479.49 1032.13 6489.62 1032.95C6512.04 1026.3 6534.34 1019.71 6556.52 1013.16ZM6601.43 1020.65C6591.91 1018.99 6582.35 1017.36 6572.75 1015.79C6551.69 1022 6530.54 1028.25 6509.27 1034.55C6519.18 1035.38 6529.08 1036.23 6538.94 1037.09C6559.88 1031.57 6580.71 1026.09 6601.43 1020.65ZM6645.38 1028.65C6636.19 1026.91 6626.92 1025.28 6617.68 1023.62C6598.35 1028.67 6578.91 1033.78 6559.37 1038.93C6568.92 1039.8 6578.44 1040.71 6587.94 1041.63C6607.18 1037.25 6626.33 1032.93 6645.38 1028.65ZM6688.07 1037.13C6679.42 1035.37 6670.8 1033.59 6662.12 1031.87C6644.63 1035.79 6627.05 1039.74 6609.4 1043.74C6618.5 1044.66 6627.57 1045.6 6636.63 1046.56C6653.86 1043.37 6671 1040.23 6688.07 1037.13ZM6729.88 1045.89C6721.82 1044.14 6713.77 1042.38 6705.67 1040.69C6690.41 1043.45 6675.1 1046.24 6659.72 1049.07C6668.15 1050 6676.57 1050.95 6684.96 1051.92C6699.99 1049.87 6714.97 1047.86 6729.88 1045.89ZM6770.07 1054.89C6762.85 1053.22 6755.57 1051.64 6748.32 1050.02C6735.83 1051.65 6723.29 1053.31 6710.71 1055C6718.11 1055.91 6725.51 1056.83 6732.89 1057.77C6745.33 1056.77 6757.72 1055.82 6770.07 1054.89ZM6807 1063.8C6801.59 1062.47 6796.19 1061.13 6790.78 1059.81C6781.78 1060.45 6772.77 1061.12 6763.72 1061.81C6769.28 1062.56 6774.84 1063.32 6780.39 1064.09C6789.29 1063.97 6798.16 1063.87 6807 1063.8ZM6839.19 1071.73C6836.94 1071.15 6834.66 1070.64 6832.42 1070.06L6822.02 1070.09L6827.4 1070.91C6831.34 1071.17 6835.27 1071.45 6839.19 1071.73ZM6815.02 1058.1C6822.5 1059.94 6830.02 1061.74 6837.46 1063.64C7330.6 1062.23 7746.53 1132.25 7956.53 1493.3C8049.22 1614.3 8137.08 1717.9 8221.88 1805.84C8129.68 1708.1 8037.59 1588.39 7944.02 1443.76L7943.9 1443.57L7943.86 1443.48C7774.17 1059.59 7339.22 1022.28 6815.02 1058.1ZM6769.68 1047.26C6778.05 1049.16 6786.39 1051.1 6794.7 1053.08C7333.58 1014.5 7782.48 1048.06 7956.73 1442.07C8012.36 1528.05 8067.42 1605.15 8122.25 1674.04C8061.05 1593.02 8001.69 1499.47 7943.94 1392.06L7943.87 1391.93L7943.82 1391.76C7941.46 1384.48 7938.96 1377.37 7936.41 1370.34C7930.59 1362.67 7925.1 1354.7 7919.94 1346.43C7911 1335.73 7902.81 1324.35 7895.36 1312.31C7886.19 1301.48 7877.87 1289.93 7870.34 1277.65C7847.01 1250.44 7829.21 1218.47 7817.37 1181.44C7651.86 1020.02 7374.71 993.851 7042.81 1018.61C6955.29 1025.14 6863.88 1035.2 6769.68 1047.26ZM6725 1037.22C6733.77 1039.11 6742.44 1041.14 6751.16 1043.1C6851.07 1030.13 6948 1019.29 7040.8 1012.37C7367.55 987.993 7642.05 1012.1 7811.86 1162.17C7806.2 1139.77 7802.55 1115.66 7801.01 1089.77C7675.66 984.644 7484.25 956.46 7252.45 968.301C7093.07 976.444 6914.42 1003.37 6725 1037.22ZM6679.62 1027.97C6688.92 1029.84 6698.22 1031.69 6707.47 1033.62C6902.57 998.521 7086.7 970.405 7251.06 962.008C7481.23 950.251 7672.4 976.889 7800.39 1076.37C7799.79 1056.74 7800.34 1036.14 7802.09 1014.53C7702.97 937.437 7558.7 911.479 7383.39 916.846C7182.68 922.995 6940.95 969.803 6679.62 1027.97ZM6634.23 1019.29C6643.94 1021.04 6653.66 1022.78 6663.28 1024.65C6930 965.097 7176.96 916.826 7382.56 910.53C7557.27 905.179 7701.89 929.886 7803.13 1003.1C7804.95 984.712 7807.6 965.629 7811.13 945.809C7730.23 885.131 7615.77 861.678 7476.45 863.439C7249.54 866.311 6956.11 935.341 6634.23 1019.29ZM6588.59 1011.12C6598.44 1012.79 6608.2 1014.57 6617.98 1016.32C6945.21 930.821 7243.93 860.058 7476.15 857.122C7615.28 855.363 7730.3 877.732 7813.05 935.394C7816.41 917.777 7820.43 899.61 7825.15 880.86C7757.4 830.169 7662.92 808.688 7547.65 808.311C7303.1 807.519 6964.35 900.475 6588.59 1011.12ZM6542.22 1003.59C6552.3 1005.19 6562.33 1006.83 6572.37 1008.48C6953.54 896.138 7297.63 801.187 7547.71 801.993C7663.03 802.37 7758.2 822.879 7827.67 871.007C7832.12 853.992 7837.11 836.523 7842.67 818.576C7784.64 773.778 7703.89 753.521 7604.87 751.794C7348.11 747.32 6967.81 865.579 6542.22 1003.59ZM6495.23 996.65C6505.63 998.114 6516.05 999.556 6526.36 1001.11C6957.27 861.312 7342.78 740.903 7605.33 745.475C7704.49 747.204 7786.01 766.528 7845.68 808.996C7850.92 792.544 7856.6 775.714 7862.78 758.475C7812.11 716.621 7740.85 696.814 7652.66 694.157C7387.31 686.158 6967.92 830.792 6495.23 996.65ZM6447.82 990.19C6458.38 991.539 6468.89 992.935 6479.36 994.377C6957.39 826.621 7381.95 679.655 7653.49 687.839C7741.86 690.502 7813.91 709.38 7866.23 748.95C7872.02 733.09 7878.19 716.92 7884.79 700.399C7839.9 659.119 7775.13 639.008 7693.8 635.624C7423.98 624.395 6971.07 794.109 6457.1 986.715L6447.82 990.19ZM6400.02 984.216C6410.68 985.467 6421.2 986.865 6431.79 988.185L6449 981.735C6965.17 788.31 7420.01 617.863 7694.93 629.309C7776.44 632.701 7842.05 651.822 7888.68 690.715C7894.81 675.603 7901.25 660.225 7908.04 644.556C7868.03 601.673 7807.62 580.388 7730.08 576.353C7463.67 562.49 6994.37 748.565 6456.34 961.887L6400.02 984.216ZM6351.14 978.954C6362.01 980.105 6372.9 981.244 6383.71 982.454L6447.93 957.004C6988.23 742.777 7459.54 555.911 7731.47 570.063C7809.15 574.104 7870.48 594.287 7912.43 634.518C7918.66 620.333 7925.14 605.938 7931.92 591.293C7896.48 544.553 7838.88 521.187 7762.71 516.502C7500.23 500.358 7016.2 701.967 6455.91 935.345C6421.27 949.775 6386.33 964.327 6351.14 978.954ZM6301.82 974.16C6312.96 975.154 6324.13 976.135 6335.16 977.233C6372.85 961.573 6410.24 946 6447.3 930.561C7009.97 696.194 7496.05 493.73 7764.37 510.232C7840.63 514.925 7899.21 536.999 7936.89 580.612L7943.89 565.787C7947.87 557.437 7951.7 549.245 7955.46 541.138C7924.95 488.098 7869.29 461.558 7792.53 456.171C7534.34 438.052 7037.01 654.412 6455.95 907.195C6405.18 929.283 6353.77 951.652 6301.82 974.16ZM6252.07 969.828C6263.31 970.727 6274.45 971.713 6285.59 972.688C6340.06 949.095 6393.94 925.65 6447.13 902.516C7030.68 648.643 7530.15 431.357 7794.44 449.902C7871 455.275 7927.72 480.1 7961.01 529.036C7966.64 516.679 7972.01 504.596 7977.1 492.82C7952.22 431.906 7898.32 401.533 7820.16 395.423C7566.52 375.605 7057.08 605.983 6456.55 877.556C6389.46 907.9 6321.22 938.754 6252.07 969.828ZM6201.62 966.064C6212.97 966.867 6224.24 967.736 6235.53 968.596C6307.25 936.374 6377.99 904.387 6447.52 872.946C7050.59 600.217 7562.19 368.858 7822.27 389.181C7899.73 395.232 7954.78 423.209 7983.22 478.463C7987.85 467.466 7992.24 456.739 7996.4 446.252C7978.11 376.006 7926.09 341.195 7846.07 334.355C7597.05 313.076 7076.56 556.765 6457.74 846.501C6374.02 885.697 6288.51 925.732 6201.62 966.064ZM6150.38 962.901C6161.96 963.564 6173.56 964.212 6185.05 964.961C6274.48 923.465 6362.47 882.275 6448.55 841.965C7070.01 550.996 7592.71 306.269 7848.35 328.114C7926.93 334.83 7980.18 366.263 8003.29 428.555C8006.79 419.398 8010.06 410.461 8013.17 401.72C8002.66 320.503 7952.82 280.573 7870.55 272.982C7626.24 250.449 7095.64 506.797 6459.56 814.094C6358.9 862.727 6255.61 912.628 6150.38 962.901ZM6098.67 960.183C6110.41 960.721 6122.12 961.281 6133.75 961.912C6241.49 910.462 6347.23 859.386 6450.22 809.635C7089 501.032 7621.85 243.594 7873.03 266.766C7952.56 274.101 8003.75 309.022 8021.1 378.538C8023.25 372.023 8025.27 365.637 8027.19 359.359C8025.88 265.466 7978.67 219.728 7893.9 211.377C7654.31 187.771 7114.42 456.135 6462.06 780.418C6344.23 838.987 6222.74 899.371 6098.67 960.183ZM6046.53 957.91C6058.36 958.353 6070.05 958.915 6081.79 959.429C6208.42 897.388 6332.4 835.766 6452.55 776.034C7107.69 450.38 7649.86 180.877 7896.53 205.18C7975.99 213.009 8024.71 250.71 8036.64 325.955L8038.26 319.528C8047.79 211.031 8003.79 158.705 7916.3 149.573C7681.4 125.057 7132.97 404.855 6465.19 745.544C6329.99 814.517 6189.91 885.976 6046.53 957.91ZM5993.54 956.271C6005.5 956.624 6017.45 956.973 6029.35 957.378C6175.37 884.163 6318.01 811.398 6455.59 741.203C7126.18 399.078 7676.93 118.102 7919.09 143.375C7994.13 151.206 8039.49 187.848 8049.57 260.334C8063.37 150.168 8022.79 96.8965 7937.9 87.5762C7707.68 62.2954 7151.37 352.96 6468.99 709.511C6316.09 789.411 6156.88 872.594 5993.54 956.271ZM3254.79 1207.78L3275.57 1204.93L3253.4 1207.67L3254.79 1207.78ZM3197.78 1215.61L3225.19 1211.84L3221.78 1211.58L3193.48 1215.09L3197.78 1215.61ZM3140.7 1223.46L3172.34 1219.11L3166.61 1218.43L3134.5 1222.43L3140.7 1223.46ZM3083.6 1231.33L3118.57 1226.51L3111.32 1225.33L3076.22 1229.72L3083.6 1231.33ZM3026.39 1239.21L3064.01 1234.03L3055.87 1232.27L3018.4 1236.97L3026.39 1239.21ZM2969.19 1247.1L3008.86 1241.63L3000.29 1239.25L2960.98 1244.2L2969.19 1247.1ZM2911.95 1255L2932.56 1252.15L2953.18 1249.31L2944.53 1246.27L2903.83 1251.41L2911.95 1255ZM2854.68 1262.89L2897.1 1257.04L2888.65 1253.33L2846.9 1258.61L2854.68 1262.89ZM2797.32 1270.75C2799.16 1270.51 2801.01 1270.3 2802.84 1270.04L2840.67 1264.83L2832.65 1260.42L2790.13 1265.82L2797.32 1270.75ZM2737.77 1276.71C2753.34 1275.62 2768.66 1274.21 2783.71 1272.45L2775.95 1267.14C2760.81 1268.39 2745.45 1269.3 2729.86 1269.89L2737.77 1276.71ZM2676.16 1279.33C2692.26 1279.05 2708.12 1278.48 2723.73 1277.59L2715.3 1270.34C2699.8 1270.71 2684.08 1270.79 2668.16 1270.56L2676.16 1279.33ZM2614.63 1279.01C2630.6 1279.43 2646.36 1279.61 2661.92 1279.5L2653.47 1270.27C2638.21 1269.88 2622.78 1269.23 2607.17 1268.33L2614.63 1279.01ZM2554.66 1276.27C2570.09 1277.25 2585.34 1278.01 2600.43 1278.54L2592.62 1267.4C2577.97 1266.41 2563.19 1265.21 2548.26 1263.8L2554.66 1276.27ZM2124.45 0.00100577L2030.33 0.00100988C1784.09 25.2301 1504.85 116.564 1221.71 209.19C899.163 314.701 571.509 421.887 284.525 433.923C184.217 438.127 88.7538 430.617 0.00196537 407.303L0.00196569 414.602C89.1899 437.231 185.022 444.461 285.66 440.241C576.049 428.061 905.168 320.397 1229.15 214.416C1547.24 110.361 1860.38 7.94175 2124.45 0.00100577ZM9148 1936.07L9148 1929.29C9099.45 1938.63 9051.83 1946.25 9005.18 1952L9053.83 1952C9084.83 1947.45 9116.23 1942.12 9148 1936.07ZM0.00197193 557.416C44.4602 561.816 90.5123 562.549 137.921 560.213C355.102 549.499 601.554 475.347 851.436 400.16C1167.75 304.991 1489.55 208.163 1768.53 234.75L1768.59 234.758C2002.46 258.05 2086.43 431.617 2184.72 634.805C2219.24 706.173 2255.54 781.224 2300.69 854.625C2253.3 765.728 2220.58 674.809 2190.06 590.003C2117.67 388.823 2057.73 222.28 1845 201.32L1845 201.323C1569.22 175.267 1242.89 275.096 919.979 373.884C656.544 454.478 395.319 534.388 163.488 545.471C107.053 548.17 52.4261 546.806 0.00298763 540.417L0.00298734 533.79C51.9921 540.39 106.188 541.854 162.194 539.177C390.916 528.245 650.81 448.739 912.913 368.555C1238.05 269.083 1566.64 168.566 1847.52 195.106L1847.57 195.117C2069.19 216.926 2129.82 385.409 2203.06 588.936C2226.83 655.008 2251.95 724.801 2284.31 794.413C2250.8 708.004 2229.9 621.48 2210.54 541.275C2162.3 341.444 2123.57 181.071 1923.98 161.677L1923.98 161.682C1646.35 135.666 1313.32 239.123 981.674 342.151C706.034 427.784 431.317 513.125 187.799 524.431C122.69 527.456 59.9 525.18 0.00197013 516.269L0.00196984 509.546C59.4701 518.744 121.85 521.145 186.556 518.14C426.852 506.981 700.217 422.061 974.5 336.849C1308.39 233.121 1643.68 128.965 1926.5 155.465L1926.53 155.475C2135.57 175.774 2174.79 338.187 2223.64 540.555C2238.3 601.276 2253.85 665.622 2275.08 730.774C2254.1 647.659 2243.64 565.85 2234.02 490.392C2208.88 293.315 2189.3 139.869 2002.94 122.038L2002.94 122.035C1723.39 96.0711 1383.72 203.106 1043.41 310.344C755.668 401.023 467.427 491.854 212.168 503.384C138.299 506.72 67.3099 503.412 0.00196905 491.611L0.00196875 484.752C66.886 496.935 137.486 500.413 210.978 497.091C462.854 485.716 749.762 395.303 1036.19 305.042C1378.73 197.095 1720.64 89.3517 2005.46 115.821L2005.51 115.821C2201.83 134.609 2221.69 290.193 2247.18 490.018C2254.23 545.293 2261.72 603.981 2273.48 664.077C2263.62 585.016 2262.26 508.255 2261.02 437.725C2257.63 244.674 2255.05 98.6969 2081.94 82.3972L2081.94 82.3919C1800.41 56.4523 1454.14 167.025 1105.24 278.445C805.381 374.204 503.565 470.592 236.622 482.338C153.907 485.976 74.6618 481.515 -6.49353e-05 466.453L-6.52413e-05 459.452C74.2268 474.992 153.091 479.666 235.434 476.044C498.994 464.448 799.45 368.495 1097.96 273.168C1449.11 161.03 1797.62 49.7413 2084.44 76.1801L2084.46 76.1801C2268.11 93.4738 2270.73 241.68 2274.18 437.676C2275.05 487.246 2275.98 539.903 2279.9 594.27C2279.7 520.11 2286.05 448.894 2291.87 383.631C2308.64 195.72 2320.97 57.5586 2160.95 42.7508L2160.95 42.7477C1877.39 16.8223 1524.58 130.903 1167.17 246.466C855.247 347.325 539.815 449.317 261.106 461.279C169.472 465.213 81.9487 459.433 0.000950386 440.76L0.000950075 433.657C81.5279 452.904 168.678 458.908 259.968 454.988C535.183 443.174 849.235 341.629 1159.78 241.212C1519.46 124.917 1874.52 10.1157 2163.41 36.5355L2163.43 36.5355C2334.61 52.3736 2322.08 192.835 2305.03 383.876C2301.15 427.404 2297.03 473.587 2294.78 521.521C2302.67 453.127 2315.27 388.003 2326.81 328.383C2361.98 146.594 2387.16 16.4631 2239.96 3.10854C2223.05 1.5733 2205.86 0.557321 2188.45 2.64101e-05L2265.13 2.30585e-05C2398.73 24.8929 2373.91 153.213 2339.91 328.954C2314.92 458.115 2284.94 613.158 2308.82 771.168C2312.96 792.803 2318.05 814.478 2324.26 836.134C2330.81 855.99 2338.25 875.808 2346.72 895.533C2355.45 913.881 2365.01 932.128 2375.53 950.209C2386 966.711 2397.22 983.046 2409.28 999.173C2421.33 1014.1 2434.08 1028.83 2447.58 1043.29C2460.69 1056.34 2474.4 1069.15 2488.74 1081.66C2502.58 1092.89 2516.91 1103.82 2531.77 1114.46L2533.43 1115.24C2547.26 1120.12 2560.96 1125.16 2574.54 1130.34C2589.79 1134.7 2604.9 1139.2 2619.88 1143.84C2636.57 1147.67 2653.11 1151.64 2669.52 1155.74C2687.62 1159.03 2705.57 1162.44 2723.37 1165.98C2742.8 1168.7 2762.07 1171.54 2781.18 1174.49C2802.05 1176.66 2822.75 1178.93 2843.28 1181.3C2865.65 1182.9 2887.83 1184.6 2909.84 1186.39C2933.55 1187.39 2957.06 1188.5 2980.4 1189.68C3005.46 1190.08 3030.29 1190.57 3054.95 1191.13C3081.73 1190.92 3108.3 1190.79 3134.65 1190.73C3162.84 1189.89 3190.79 1189.12 3218.52 1188.42C3248.36 1186.92 3277.93 1185.49 3307.26 1184.13C3338.55 1181.96 3369.57 1179.86 3400.33 1177.83C3433.14 1174.98 3465.67 1172.19 3497.94 1169.48C3532.33 1165.92 3566.42 1162.43 3600.21 1159.01C3636.43 1154.7 3672.31 1150.47 3707.89 1146.3C4643.88 1021.37 5371.63 941.226 5976.45 955.758C6142.37 870.805 6304.09 786.319 6459.3 705.223C7144.53 347.183 7703.16 55.2999 7940.85 81.403C8046.42 92.9959 8088.58 166.004 8050.42 321.743C8048.51 343.596 8044.49 367.607 8038.26 393.907C8036.41 416.014 8032.52 440.227 8026.49 466.652C8024.73 488.896 8021.02 513.152 8015.27 539.54C8013.62 562.166 8010.07 586.78 8004.52 613.482C8003.01 636.174 7999.71 660.75 7994.51 687.326C7993.2 710.416 7990.11 735.375 7985.18 762.286C7984.09 785.47 7981.32 810.445 7976.81 837.283C7976.01 860.747 7973.59 885.952 7969.49 912.973C7969.04 936.721 7967.03 962.147 7963.41 989.343C7963.39 1013.2 7961.91 1038.65 7958.88 1065.8C7959.2 1080.77 7958.97 1096.36 7958.18 1112.54C7959.89 1145.39 7962.58 1176.91 7966.24 1207.15C7974.34 1260.58 7984.97 1310.22 7997.98 1356.33C8042.24 1374.75 8093.67 1386.82 8151.47 1393.17C8392.99 1419.69 8745.2 1347.38 9148 1220.99L9148 1228.25C8744.87 1354.21 8391.91 1426.07 8148.52 1399.34C8093.38 1393.28 8043.86 1382.19 8000.62 1365.6L8002.4 1371.64L8002.51 1371.96L8002.51 1371.99C8004.01 1376.68 8005.53 1381.33 8007.08 1385.95C8059.48 1411.7 8122.69 1427.67 8195.27 1434.98C8431.72 1458.81 8766.88 1391.94 9148 1274.61L9148 1281.84C8766.63 1398.73 8430.76 1465.18 8192.59 1441.18C8123.23 1434.19 8062.17 1419.58 8010.63 1396.44C8012.71 1402.48 8014.84 1408.43 8016.99 1414.35C8077.11 1448.76 8152.49 1469.02 8240.65 1477.06C8471.26 1498.11 8788.92 1436.63 9148 1328.34L9148 1335.56C8788.72 1443.41 8470.43 1504.47 8238.22 1483.28C8153.89 1475.59 8080.91 1457.13 8021.39 1426.29C8023.28 1431.31 8025.19 1436.28 8027.14 1441.21C8094.72 1485.9 8182.92 1510.92 8287.79 1519.44C8511.69 1537.62 8811.35 1481.47 9148 1382.19L9148 1389.37C8811.22 1488.21 8510.98 1543.98 8285.62 1525.68C8185.41 1517.54 8100.03 1494.86 8032.74 1455.04C8034.31 1458.86 8035.88 1462.68 8037.48 1466.45C8112.38 1523.2 8214.14 1553.45 8336.89 1562.12C8553.07 1577.38 8834.24 1526.4 9148 1436.11L9148 1443.28C8834.14 1533.13 8552.48 1583.74 8334.97 1568.38C8217.95 1560.12 8119.54 1532.91 8044.57 1482.74C8045.65 1485.17 8046.76 1487.54 8047.86 1489.94C8130.05 1560.73 8246.26 1596.68 8388.14 1605.11C8595.47 1617.44 8857.56 1571.53 9148 1490.18L9148 1497.3C8857.54 1578.23 8595.05 1623.8 8386.54 1611.41C8251.93 1603.41 8139.83 1571.44 8057.15 1509.62L8057.97 1511.3C8147.55 1598.52 8279.37 1640.73 8441.8 1648.46C8639.01 1657.85 8881.37 1616.89 9148 1544.38L9148 1551.5C8881.41 1623.58 8638.74 1664.19 8440.5 1654.76C8292.92 1647.73 8170.02 1613.18 8080.17 1543.57C8177.55 1640.8 8321.42 1685.95 8498.06 1692.14C8683.73 1698.65 8905.7 1662.44 9148 1598.69L9148 1605.78C8905.82 1669.11 8683.65 1705 8497.14 1698.46C8337.68 1692.87 8204.34 1656.52 8106.8 1580.25C8212.95 1685.29 8368.18 1732.08 8557.19 1736.19C8729.73 1739.94 8930.55 1708.35 9148 1653.2L9148 1660.23C8930.75 1714.97 8729.83 1746.27 8556.62 1742.51C8384.42 1738.76 8239.71 1700.63 8133.54 1616.97C8249.66 1730.65 8417.19 1779.07 8619.35 1780.6C8777.05 1781.8 8955.94 1754.65 9148 1707.9L9148 1714.9C8956.21 1761.25 8777.32 1788.12 8619.14 1786.92C8432.94 1785.51 8275.57 1745.49 8159.61 1653.17C8287.13 1776.94 8468.23 1826.99 8684.65 1825.37C8825.68 1824.31 8981.83 1801.44 9148 1762.84L9148 1769.8C8982.18 1808.01 8826.14 1830.63 8684.8 1831.69C8483.85 1833.2 8312.8 1791.4 8185.77 1689.46C8326.27 1824.41 8521.79 1875.96 8753.03 1870.51C8875.53 1867.61 9008.16 1848.79 9148 1818L9148 1824.9C9008.61 1855.33 8876.22 1873.93 8753.64 1876.82C8536.6 1881.94 8350.53 1838.19 8210.79 1724.75C8366.26 1872.98 8577.32 1926.09 8824.34 1916C8926.48 1911.83 9034.83 1896.91 9148 1873.49L9148 1880.33C9035.39 1903.42 8927.41 1918.15 8825.42 1922.32C8591.82 1931.86 8389.93 1886.33 8235.77 1760.03C8349.74 1867.61 8487.36 1927.92 8643.37 1952L8603.72 1952C8474.47 1927.12 8358.47 1876.45 8258.77 1793.64C8334.66 1864.83 8418.38 1916.66 8509.05 1952L8488.17 1952C8413.9 1921.56 8344.38 1880.01 8280.09 1825.8C8334.72 1876.77 8392.07 1918.52 8452.07 1952L8434.7 1952C8388.13 1925.34 8343.17 1893.72 8299.86 1856.69C8338.63 1892.58 8378.1 1924.25 8418.36 1952L8402.4 1952C8372.4 1931.01 8342.84 1907.86 8313.68 1882.43C8340.81 1907.45 8367.97 1930.6 8395.21 1952L8379.93 1952C8355.94 1932.97 8332 1912.62 8308.11 1890.82C8331.23 1912.39 8354.15 1932.75 8376.92 1952L8361.86 1952C8230 1839.92 8093.13 1690 7944.12 1495.47L7943.97 1495.23C7740.16 1144.53 7339.15 1071.29 6861.99 1070.05C6867.77 1071.57 6873.51 1073.16 6879.27 1074.71C7327.24 1110.24 7710.87 1216.16 7956.37 1544.68L7956.38 1544.68C8105.97 1711.6 8238.09 1846.04 8359.95 1952L8345 1952C8223.68 1846.18 8092.42 1712.52 7944.25 1547.18L7944.12 1546.99C7707.88 1230.7 7341.96 1122.45 6913.68 1084.15C6916.34 1084.91 6918.98 1085.73 6921.64 1086.49C6962.82 1093.89 7003.47 1102.01 7043.56 1110.95C7395.66 1189.45 7704.63 1330.65 7956.29 1596.13C8102.04 1736.41 8228.44 1854.34 8341.81 1952L8326.78 1952C8214.02 1854.71 8088.61 1737.69 7944.4 1598.89L7944.31 1598.79C7694.14 1334.87 7387.4 1194.59 7038.04 1116.69C7020.08 1112.69 7002.02 1108.85 6983.83 1105.17C7333.3 1214.48 7646.72 1388.97 7956.02 1647.46C8014.15 1696.03 8059.34 1733.95 8102.56 1770.21C8181.46 1836.41 8253.58 1896.92 8320.21 1952L8304.96 1952C8239.35 1897.74 8168.48 1838.28 8091.11 1773.36C8041.5 1731.73 7989.16 1687.82 7944.62 1650.6C7617.64 1377.34 7285.85 1198.39 6911.1 1091.36C6882.77 1086.33 6854.17 1081.63 6825.33 1077.24C6791.67 1074.97 6757.68 1073.05 6723.36 1071.45C6686.65 1072.24 6649.57 1073.33 6612.19 1074.62C6572.62 1078.26 6532.69 1082.09 6492.47 1086.03L6434.01 1094.64C6411.35 1097.98 6388.6 1101.33 6365.77 1104.68C6322.18 1112.96 6278.31 1121.23 6234.26 1129.35C6189.67 1139.32 6144.87 1149.17 6099.94 1158.77C6054.33 1170.16 6008.56 1181.34 5962.73 1192.17C5917.2 1204.47 5871.56 1216.48 5825.92 1228.08C5780.42 1241.1 5734.89 1253.77 5689.39 1265.98C5643.69 1279.65 5598.01 1292.9 5552.4 1305.63C5506.98 1319.68 5461.61 1333.27 5416.34 1346.31C5371.39 1360.57 5326.51 1374.36 5281.77 1387.57C5236.98 1402.07 5192.3 1416.08 5147.78 1429.49C5103.92 1443.93 5060.18 1457.86 5016.61 1471.21C4972.79 1485.84 4929.11 1499.94 4885.61 1513.45C4841.15 1528.46 4796.86 1542.9 4752.77 1556.73C4709.68 1571.39 4666.76 1585.51 4624.03 1599.04C4581.1 1613.78 4538.34 1627.96 4495.79 1641.55C4452.25 1656.6 4408.88 1671.07 4365.75 1684.93C3910.85 1842.8 3477.56 1937.83 3109.99 1913.58C2850.56 1896.46 2715.59 1625.57 2587.02 1367.51C2572.65 1338.69 2558.38 1310.03 2544.02 1281.91C2226.55 1260.07 1844 1151.08 1472.02 1045.07C1150.23 953.365 836.379 863.916 581.043 835.583C344.66 809.357 155.198 831.24 0.00300131 853.383L0.00300102 846.797C156.018 824.613 346.293 803.039 583.991 829.413C841.335 857.969 1156.06 947.661 1478.73 1039.62C1847.66 1144.76 2227.03 1252.85 2540.64 1275.3L2534 1262.41C2242.06 1232.52 1899.1 1126.61 1561.22 1022.25C1239.49 922.872 922.352 824.919 660.027 795.942C399.687 767.391 186.412 802.807 10.8363 831.958L0.00198401 833.759L0.00198372 827.08L6.55602 825.99C183.756 796.568 399.014 760.825 662.97 789.772C927.542 818.997 1245.64 917.248 1568.34 1016.92C1902.89 1120.25 2242.43 1225.1 2530.45 1255.57L2523.83 1242.91C2256.35 1205.79 1950.23 1102.84 1645.36 1000.3C1325.88 892.838 1007.77 785.841 739.015 756.299L739.015 756.295C479.27 728.144 257.136 768.847 70.1519 803.118C46.2045 807.508 22.8252 811.791 0.00198322 815.818L0.00198293 809.06C21.3178 805.279 43.1409 801.283 65.461 797.193C254.131 762.617 478.265 721.544 741.933 750.128L741.959 750.128C1013.12 779.935 1332.32 887.298 1652.89 995.123C1954.15 1096.45 2256.67 1198.2 2520.11 1235.83L2513.52 1223.46C2269.32 1179.92 1997.09 1079.72 1723.79 979.113C1408.78 863.153 1092.33 746.656 818.02 716.657L818.02 716.655C558.352 688.822 327.694 734.588 129.671 773.882C84.7887 782.787 41.5674 791.367 0.00198248 798.699L0.00198218 791.955C39.9747 784.839 81.5452 776.59 124.664 768.034C324.457 728.393 557.168 682.212 820.887 710.485L820.913 710.485C1098.06 740.797 1415.65 857.707 1731.78 974.082C2001.18 1073.25 2269.53 1172.01 2509.51 1215.99L2502.98 1203.99C2280.69 1154.76 2039.39 1057.05 1795.85 958.419C1487.73 833.628 1175.96 707.36 897.003 677.012L897.003 677.009C637.121 649.461 398.194 700.091 189.437 744.338C123.245 758.364 60.0555 771.754 0.00198174 781.858L0.00198145 775.149C58.2747 765.209 119.772 752.176 184.127 738.537C394.714 693.905 635.723 642.833 899.872 670.84L899.898 670.84C1182.04 701.535 1495.04 828.301 1804.38 953.583C2043.69 1050.5 2280.8 1146.53 2498.61 1196.05C2496.47 1192.18 2494.33 1188.32 2492.17 1184.49C2290.27 1130.23 2076.92 1034.65 1861.03 937.915C1562.22 804.036 1258.48 667.945 976.038 637.375L976.038 637.384C715.562 610.062 468.621 665.383 249.426 714.492C161.663 734.151 78.3078 752.827 0.001981 764.911L0.00198071 758.268C76.3939 746.284 158 728.005 243.85 708.769C464.983 659.228 714.094 603.419 978.826 631.186L978.879 631.199C1264.83 662.129 1569.9 798.819 1870.02 933.285C2081.36 1027.98 2290.24 1121.57 2487.32 1175.92L2480.99 1164.89C2297.8 1106.11 2109.42 1012.19 1918.81 917.155C1631.74 774.024 1339.52 628.328 1055.03 597.732L1055.02 597.74C793.826 570.632 539.042 630.495 309.6 684.406C200.157 710.121 96.43 734.495 0.00198024 747.601L0.00197996 741.031C94.2873 727.955 196.273 703.996 303.813 678.726C535.224 624.354 792.198 563.977 1057.82 591.544L1057.84 591.555C1346.26 622.567 1639.87 768.959 1928.31 912.773C2114.02 1005.36 2297.59 1096.87 2475.51 1155.47C2473.46 1151.98 2471.4 1148.51 2469.33 1145.06C2303.09 1082.12 2136.82 989.302 1969.01 895.618C1696.06 743.239 1418.97 588.55 1134.04 558.093L1134.04 558.098C871.927 531.173 609.454 595.45 369.982 654.095C238.778 686.227 114.406 716.688 0.00197946 729.786L0.00197918 723.273C111.999 710.156 234.656 680.119 363.995 648.446C605.439 589.318 870.091 524.502 1136.77 551.9L1136.82 551.914C1426.08 582.817 1704.63 738.324 1979.03 891.507C2141.52 982.227 2302.57 1072.12 2462.95 1134.51C2460.96 1131.26 2458.97 1128.03 2456.97 1124.83C2305.93 1057.9 2159.13 965.526 2011.71 872.739C1755.15 711.273 1496.6 548.562 1213.02 518.452L1213.02 518.457C949.82 491.69 679.831 560.256 430.524 623.575C277.508 662.435 132.214 699.339 0.00197866 711.361L0.00197838 704.92C129.566 692.849 273.184 656.371 424.382 617.973C675.707 554.144 947.889 485.02 1215.75 512.26L1215.8 512.273C1504.13 542.87 1764.15 706.512 2022.19 868.904C2163.86 958.069 2304.94 1046.85 2449.32 1112.72C2447.42 1109.74 2445.51 1106.78 2443.59 1103.84C2306.14 1032.93 2176.56 940.289 2047.29 847.887C1809.27 677.735 1572.31 508.348 1291.98 478.814L1291.98 478.805C1027.54 452.191 750.177 524.936 491.24 592.855C316.378 638.725 149.832 682.4 0.00197782 692.27L0.00197755 685.891C146.982 675.954 311.861 632.701 484.936 587.305C745.956 518.843 1025.55 445.51 1294.71 472.616L1294.77 472.616C1580.26 502.691 1818.71 673.146 2058.23 844.366C2181.14 932.228 2304.35 1020.3 2433.99 1089.43C2432.16 1086.74 2430.34 1084.06 2428.49 1081.4C2303.5 1006.41 2189.41 912.964 2076.58 820.541C1859.01 642.331 1646.1 467.931 1370.96 439.173L1370.96 439.167C1105.21 412.676 820.572 489.511 552.121 561.986C363.215 612.988 182.234 661.843 19.9914 671.537C13.292 671.939 6.63529 672.253 0.000960516 672.515L0.000960238 666.153C6.11182 665.905 12.2278 665.613 18.3925 665.247C178.061 655.705 357.929 607.148 545.672 556.46C816.224 483.423 1103.08 405.982 1373.7 432.975L1373.75 432.975C1654.5 462.321 1868.87 637.917 2087.93 817.345C2193.46 903.798 2300.12 991.146 2415.54 1063.22L2415.08 1062.59C2413.45 1060.38 2411.85 1058.16 2410.26 1055.95C2297.46 976.961 2198.02 882.636 2100.62 790.248C1905.19 604.864 1718.01 427.315 1449.94 399.527L1449.94 399.521C1182.69 373.137 890.912 453.973 613.122 530.945C411.55 586.792 217.267 640.622 43.5007 650.559C28.8446 651.395 14.344 651.909 0.000959624 652.103L0.000959346 645.749C13.8409 645.566 27.8261 645.074 41.9557 644.266C213.131 634.478 406.23 580.977 606.567 525.471C886.505 447.91 1180.53 366.445 1452.65 393.329L1452.73 393.329C1726.93 421.757 1915.5 600.631 2112.39 787.399C2201.95 872.349 2293.24 958.944 2394.9 1033.55L2391.48 1028.28C2290.06 945.193 2204.07 849.475 2120.76 756.715C1948.82 565.29 1788.24 386.53 1528.95 359.887L1528.95 359.884C1260.18 333.586 961.326 418.354 674.286 499.778C460.197 560.504 252.612 619.389 67.2235 629.562C44.4541 630.813 22.0395 631.313 0.000958702 631.02L0.000958425 624.664C21.5557 624.981 43.4692 624.492 65.7303 623.271C248.33 613.251 454.727 554.705 667.575 494.331C956.776 412.292 1257.87 326.892 1531.63 353.689L1531.68 353.689C1797.67 381.021 1959.55 561.231 2132.89 754.21C2208.43 838.308 2286.18 924.846 2375.48 1002.02L2374.02 999.481C2282.82 911.827 2209.08 813.754 2138.44 719.798C1990.98 523.673 1857.09 345.597 1607.94 320.24L1607.94 320.235C1337.54 294.025 1031.71 382.652 735.552 468.476C509.028 534.117 288.098 598.143 91.112 608.55C60.0952 610.192 29.7096 610.481 0.000957752 609.277L0.000957472 602.874C29.24 604.128 59.1448 603.874 89.6717 602.259C283.751 592.005 503.46 528.331 728.732 463.051C1027.06 376.595 1335.14 287.321 1610.59 314.044L1610.67 314.044C1866.97 340.128 2002.06 519.792 2150.83 717.667C2212.64 799.877 2276.83 885.248 2352.95 963.902C2273.59 872.659 2212.71 773.509 2155.03 679.586C2032.61 480.233 1924.75 304.58 1687 280.607L1687 280.61C1414.88 254.446 1102.13 346.87 796.928 437.06C558.052 507.65 323.743 576.896 115.13 587.533C75.7474 589.539 37.3258 589.457 0.00197322 586.928L0.00197294 580.482C36.8704 583.099 74.8346 583.224 113.743 581.241C319.317 570.757 552.393 501.877 790.019 431.655C1097.39 340.824 1412.37 247.736 1689.58 274.391L1689.63 274.399C1935.14 299.129 2044.07 476.5 2167.68 677.8C2214.86 754.63 2264.2 834.966 2324.02 911.528C2261.22 820.893 2215.14 725.677 2171.86 636.217C2074.61 435.182 1991.54 263.448 1766.01 240.962L1766.01 240.965C1492.05 214.859 1172.49 311.012 858.397 405.514C607.198 481.1 359.438 555.646 139.273 566.504C91.4118 568.864 44.9085 568.209 0.00298866 563.945L0.00298837 557.416L0.00197193 557.416ZM7956.79 670.176L7956.79 670.187ZM7956.29 1596.13L7956.33 1596.17ZM7956.79 670.187L7956.77 670.222Z" fill="url(#paint0_linear_241_89)" fill-opacity="0.16"/>
<defs>
<linearGradient id="paint0_linear_241_89" x1="-178.345" y1="586.207" x2="10122.1" y2="2096.54" gradientUnits="userSpaceOnUse">
<stop stop-color="#67ABFF"/>
<stop offset="1" stop-color="#0978FE"/>
</linearGradient>
</defs>
</svg>
